<svg width="481" height="258" viewBox="0 0 481 258" fill="none" xmlns="http://www.w3.org/2000/svg">
<rect x="92" y="32" width="5" height="192" fill="#0171C2"/>
<rect x="92" y="231" width="5" height="5" fill="#0171C2"/>
<rect x="92" y="242" width="5" height="5" fill="#0171C2"/>
<rect x="92" y="253" width="5" height="5" fill="#0171C2"/>
<circle cx="94.5" cy="22.5" r="20" fill="#0094FF" stroke="black" stroke-width="5"/>
<path d="M142.159 19H140.045C139.92 18.392 139.702 17.858 139.389 17.3977C139.082 16.9375 138.707 16.5511 138.264 16.2386C137.827 15.9205 137.341 15.6818 136.807 15.5227C136.273 15.3636 135.716 15.2841 135.136 15.2841C134.08 15.2841 133.122 15.5511 132.264 16.0852C131.412 16.6193 130.733 17.4062 130.227 18.446C129.727 19.4858 129.477 20.7614 129.477 22.2727C129.477 23.7841 129.727 25.0597 130.227 26.0994C130.733 27.1392 131.412 27.9261 132.264 28.4602C133.122 28.9943 134.08 29.2614 135.136 29.2614C135.716 29.2614 136.273 29.1818 136.807 29.0227C137.341 28.8636 137.827 28.6278 138.264 28.3153C138.707 27.9972 139.082 27.608 139.389 27.1477C139.702 26.6818 139.92 26.1477 140.045 25.5455H142.159C142 26.4375 141.71 27.2358 141.29 27.9403C140.869 28.6449 140.347 29.2443 139.722 29.7386C139.097 30.2273 138.395 30.5994 137.616 30.8551C136.844 31.1108 136.017 31.2386 135.136 31.2386C133.648 31.2386 132.324 30.875 131.165 30.1477C130.006 29.4205 129.094 28.3864 128.429 27.0455C127.764 25.7045 127.432 24.1136 127.432 22.2727C127.432 20.4318 127.764 18.8409 128.429 17.5C129.094 16.1591 130.006 15.125 131.165 14.3977C132.324 13.6705 133.648 13.3068 135.136 13.3068C136.017 13.3068 136.844 13.4347 137.616 13.6903C138.395 13.946 139.097 14.321 139.722 14.8153C140.347 15.304 140.869 15.9006 141.29 16.6051C141.71 17.304 142 18.1023 142.159 19ZM150.62 31.2727C149.438 31.2727 148.401 30.9915 147.509 30.429C146.623 29.8665 145.93 29.0795 145.43 28.0682C144.935 27.0568 144.688 25.875 144.688 24.5227C144.688 23.1591 144.935 21.9687 145.43 20.9517C145.93 19.9347 146.623 19.1449 147.509 18.5824C148.401 18.0199 149.438 17.7386 150.62 17.7386C151.802 17.7386 152.836 18.0199 153.722 18.5824C154.614 19.1449 155.308 19.9347 155.802 20.9517C156.302 21.9687 156.552 23.1591 156.552 24.5227C156.552 25.875 156.302 27.0568 155.802 28.0682C155.308 29.0795 154.614 29.8665 153.722 30.429C152.836 30.9915 151.802 31.2727 150.62 31.2727ZM150.62 29.4659C151.518 29.4659 152.256 29.2358 152.836 28.7756C153.415 28.3153 153.844 27.7102 154.123 26.9602C154.401 26.2102 154.54 25.3977 154.54 24.5227C154.54 23.6477 154.401 22.8324 154.123 22.0767C153.844 21.321 153.415 20.7102 152.836 20.2443C152.256 19.7784 151.518 19.5455 150.62 19.5455C149.722 19.5455 148.984 19.7784 148.404 20.2443C147.825 20.7102 147.396 21.321 147.117 22.0767C146.839 22.8324 146.7 23.6477 146.7 24.5227C146.7 25.3977 146.839 26.2102 147.117 26.9602C147.396 27.7102 147.825 28.3153 148.404 28.7756C148.984 29.2358 149.722 29.4659 150.62 29.4659ZM159.622 31V17.9091H161.565V19.9545H161.736C162.009 19.2557 162.449 18.7131 163.057 18.3267C163.665 17.9347 164.395 17.7386 165.247 17.7386C166.111 17.7386 166.83 17.9347 167.403 18.3267C167.983 18.7131 168.435 19.2557 168.759 19.9545H168.895C169.23 19.2784 169.733 18.7415 170.403 18.3438C171.074 17.9403 171.878 17.7386 172.815 17.7386C173.986 17.7386 174.943 18.1051 175.688 18.8381C176.432 19.5653 176.804 20.6989 176.804 22.2386V31H174.793V22.2386C174.793 21.2727 174.528 20.5824 174 20.1676C173.472 19.7528 172.849 19.5455 172.134 19.5455C171.213 19.5455 170.5 19.8239 169.994 20.3807C169.489 20.9318 169.236 21.6307 169.236 22.4773V31H167.19V22.0341C167.19 21.2898 166.949 20.6903 166.466 20.2358C165.983 19.7756 165.361 19.5455 164.599 19.5455C164.077 19.5455 163.588 19.6847 163.134 19.9631C162.685 20.2415 162.321 20.6278 162.043 21.1222C161.77 21.6108 161.634 22.1761 161.634 22.8182V31H159.622ZM180.482 35.9091V17.9091H182.425V19.9886H182.663C182.811 19.7614 183.016 19.4716 183.277 19.1193C183.544 18.7614 183.925 18.4432 184.419 18.1648C184.919 17.8807 185.595 17.7386 186.447 17.7386C187.55 17.7386 188.521 18.0142 189.362 18.5653C190.203 19.1165 190.859 19.8977 191.331 20.9091C191.803 21.9205 192.038 23.1136 192.038 24.4886C192.038 25.875 191.803 27.0767 191.331 28.0938C190.859 29.1051 190.206 29.8892 189.371 30.446C188.536 30.9972 187.572 31.2727 186.482 31.2727C185.641 31.2727 184.967 31.1335 184.462 30.8551C183.956 30.571 183.567 30.25 183.294 29.892C183.021 29.5284 182.811 29.2273 182.663 28.9886H182.493V35.9091H180.482ZM182.459 24.4545C182.459 25.4432 182.604 26.3153 182.893 27.071C183.183 27.821 183.607 28.4091 184.163 28.8352C184.72 29.2557 185.402 29.4659 186.209 29.4659C187.05 29.4659 187.751 29.2443 188.314 28.8011C188.882 28.3523 189.308 27.75 189.592 26.9943C189.882 26.233 190.027 25.3864 190.027 24.4545C190.027 23.5341 189.885 22.7045 189.601 21.9659C189.322 21.2216 188.899 20.6335 188.331 20.2017C187.768 19.7642 187.061 19.5455 186.209 19.5455C185.391 19.5455 184.703 19.7528 184.146 20.1676C183.589 20.5767 183.169 21.1506 182.885 21.8892C182.601 22.6222 182.459 23.4773 182.459 24.4545ZM198.959 31.3068C198.129 31.3068 197.376 31.1506 196.7 30.8381C196.024 30.5199 195.487 30.0625 195.089 29.4659C194.692 28.8636 194.493 28.1364 194.493 27.2841C194.493 26.5341 194.641 25.9261 194.936 25.4602C195.232 24.9886 195.626 24.6193 196.121 24.3523C196.615 24.0852 197.161 23.8864 197.757 23.7557C198.359 23.6193 198.964 23.5114 199.572 23.4318C200.368 23.3295 201.013 23.2528 201.507 23.2017C202.007 23.1449 202.371 23.0511 202.598 22.9205C202.831 22.7898 202.947 22.5625 202.947 22.2386V22.1705C202.947 21.3295 202.717 20.6761 202.257 20.2102C201.803 19.7443 201.112 19.5114 200.186 19.5114C199.226 19.5114 198.473 19.7216 197.928 20.142C197.382 20.5625 196.999 21.0114 196.777 21.4886L194.868 20.8068C195.209 20.0114 195.663 19.392 196.232 18.9489C196.805 18.5 197.43 18.1875 198.107 18.0114C198.788 17.8295 199.459 17.7386 200.118 17.7386C200.538 17.7386 201.021 17.7898 201.567 17.892C202.118 17.9886 202.649 18.1903 203.161 18.4972C203.678 18.804 204.107 19.267 204.447 19.8864C204.788 20.5057 204.959 21.3352 204.959 22.375V31H202.947V29.2273H202.845C202.709 29.5114 202.482 29.8153 202.163 30.1392C201.845 30.4631 201.422 30.7386 200.893 30.9659C200.365 31.1932 199.72 31.3068 198.959 31.3068ZM199.266 29.5C200.061 29.5 200.732 29.3438 201.277 29.0312C201.828 28.7188 202.243 28.3153 202.521 27.821C202.805 27.3267 202.947 26.8068 202.947 26.2614V24.4205C202.862 24.5227 202.675 24.6165 202.385 24.7017C202.101 24.7812 201.771 24.8523 201.396 24.9148C201.027 24.9716 200.666 25.0227 200.314 25.0682C199.967 25.108 199.686 25.142 199.47 25.1705C198.947 25.2386 198.459 25.3494 198.004 25.5028C197.555 25.6506 197.192 25.875 196.913 26.1761C196.641 26.4716 196.504 26.875 196.504 27.3864C196.504 28.0852 196.763 28.6136 197.28 28.9716C197.803 29.3239 198.464 29.5 199.266 29.5ZM210.641 23.125V31H208.63V17.9091H210.573V19.9545H210.744C211.05 19.2898 211.516 18.7557 212.141 18.3523C212.766 17.9432 213.573 17.7386 214.562 17.7386C215.448 17.7386 216.224 17.9205 216.888 18.2841C217.553 18.642 218.07 19.1875 218.44 19.9205C218.809 20.6477 218.994 21.5682 218.994 22.6818V31H216.982V22.8182C216.982 21.7898 216.715 20.9886 216.181 20.4148C215.647 19.8352 214.914 19.5455 213.982 19.5455C213.34 19.5455 212.766 19.6847 212.261 19.9631C211.761 20.2415 211.366 20.6477 211.076 21.1818C210.786 21.7159 210.641 22.3636 210.641 23.125ZM223.496 35.9091C223.155 35.9091 222.851 35.8807 222.584 35.8239C222.317 35.7727 222.132 35.7216 222.03 35.6705L222.541 33.8977C223.03 34.0227 223.462 34.0682 223.837 34.0341C224.212 34 224.544 33.8324 224.834 33.5312C225.129 33.2358 225.399 32.7557 225.643 32.0909L226.018 31.0682L221.178 17.9091H223.359L226.973 28.3409H227.109L230.723 17.9091H232.905L227.348 32.9091C227.098 33.5852 226.788 34.1449 226.419 34.5881C226.05 35.0369 225.621 35.3693 225.132 35.5852C224.649 35.8011 224.104 35.9091 223.496 35.9091ZM242.582 31V13.5455H253.048V15.4205H244.696V21.3182H252.264V23.1932H244.696V31H242.582ZM260.753 31.2727C259.571 31.2727 258.534 30.9915 257.642 30.429C256.756 29.8665 256.062 29.0795 255.562 28.0682C255.068 27.0568 254.821 25.875 254.821 24.5227C254.821 23.1591 255.068 21.9687 255.562 20.9517C256.062 19.9347 256.756 19.1449 257.642 18.5824C258.534 18.0199 259.571 17.7386 260.753 17.7386C261.935 17.7386 262.969 18.0199 263.855 18.5824C264.747 19.1449 265.44 19.9347 265.935 20.9517C266.435 21.9687 266.685 23.1591 266.685 24.5227C266.685 25.875 266.435 27.0568 265.935 28.0682C265.44 29.0795 264.747 29.8665 263.855 30.429C262.969 30.9915 261.935 31.2727 260.753 31.2727ZM260.753 29.4659C261.651 29.4659 262.389 29.2358 262.969 28.7756C263.548 28.3153 263.977 27.7102 264.256 26.9602C264.534 26.2102 264.673 25.3977 264.673 24.5227C264.673 23.6477 264.534 22.8324 264.256 22.0767C263.977 21.321 263.548 20.7102 262.969 20.2443C262.389 19.7784 261.651 19.5455 260.753 19.5455C259.855 19.5455 259.116 19.7784 258.537 20.2443C257.957 20.7102 257.528 21.321 257.25 22.0767C256.972 22.8324 256.832 23.6477 256.832 24.5227C256.832 25.3977 256.972 26.2102 257.25 26.9602C257.528 27.7102 257.957 28.3153 258.537 28.7756C259.116 29.2358 259.855 29.4659 260.753 29.4659ZM278.005 25.6477V17.9091H280.016V31H278.005V28.7841H277.869C277.562 29.4489 277.085 30.0142 276.437 30.4801C275.789 30.9403 274.971 31.1705 273.982 31.1705C273.164 31.1705 272.437 30.9915 271.8 30.6335C271.164 30.2699 270.664 29.7244 270.3 28.9972C269.937 28.2642 269.755 27.3409 269.755 26.2273V17.9091H271.766V26.0909C271.766 27.0455 272.033 27.8068 272.567 28.375C273.107 28.9432 273.795 29.2273 274.63 29.2273C275.13 29.2273 275.638 29.0994 276.156 28.8438C276.678 28.5881 277.116 28.196 277.468 27.6676C277.826 27.1392 278.005 26.4659 278.005 25.6477ZM285.712 23.125V31H283.7V17.9091H285.643V19.9545H285.814C286.121 19.2898 286.587 18.7557 287.212 18.3523C287.837 17.9432 288.643 17.7386 289.632 17.7386C290.518 17.7386 291.294 17.9205 291.959 18.2841C292.624 18.642 293.141 19.1875 293.51 19.9205C293.879 20.6477 294.064 21.5682 294.064 22.6818V31H292.053V22.8182C292.053 21.7898 291.786 20.9886 291.251 20.4148C290.717 19.8352 289.984 19.5455 289.053 19.5455C288.411 19.5455 287.837 19.6847 287.331 19.9631C286.831 20.2415 286.436 20.6477 286.146 21.1818C285.857 21.7159 285.712 22.3636 285.712 23.125ZM302.683 31.2727C301.592 31.2727 300.629 30.9972 299.793 30.446C298.958 29.8892 298.305 29.1051 297.833 28.0938C297.362 27.0767 297.126 25.875 297.126 24.4886C297.126 23.1136 297.362 21.9205 297.833 20.9091C298.305 19.8977 298.961 19.1165 299.802 18.5653C300.643 18.0142 301.614 17.7386 302.717 17.7386C303.569 17.7386 304.242 17.8807 304.737 18.1648C305.237 18.4432 305.617 18.7614 305.879 19.1193C306.146 19.4716 306.353 19.7614 306.501 19.9886H306.671V13.5455H308.683V31H306.739V28.9886H306.501C306.353 29.2273 306.143 29.5284 305.87 29.892C305.597 30.25 305.208 30.571 304.702 30.8551C304.197 31.1335 303.523 31.2727 302.683 31.2727ZM302.955 29.4659C303.762 29.4659 304.444 29.2557 305.001 28.8352C305.558 28.4091 305.981 27.821 306.271 27.071C306.56 26.3153 306.705 25.4432 306.705 24.4545C306.705 23.4773 306.563 22.6222 306.279 21.8892C305.995 21.1506 305.575 20.5767 305.018 20.1676C304.461 19.7528 303.773 19.5455 302.955 19.5455C302.103 19.5455 301.393 19.7642 300.825 20.2017C300.262 20.6335 299.839 21.2216 299.555 21.9659C299.276 22.7045 299.137 23.5341 299.137 24.4545C299.137 25.3864 299.279 26.233 299.563 26.9943C299.853 27.75 300.279 28.3523 300.842 28.8011C301.41 29.2443 302.114 29.4659 302.955 29.4659ZM318.134 31.2727C316.873 31.2727 315.785 30.9943 314.87 30.4375C313.961 29.875 313.259 29.0909 312.765 28.0852C312.276 27.0739 312.032 25.8977 312.032 24.5568C312.032 23.2159 312.276 22.0341 312.765 21.0114C313.259 19.983 313.947 19.1818 314.827 18.608C315.714 18.0284 316.748 17.7386 317.93 17.7386C318.612 17.7386 319.285 17.8523 319.95 18.0795C320.614 18.3068 321.219 18.6761 321.765 19.1875C322.31 19.6932 322.745 20.3636 323.069 21.1989C323.393 22.0341 323.555 23.0625 323.555 24.2841V25.1364H313.464V23.3977H321.509C321.509 22.6591 321.362 22 321.066 21.4205C320.776 20.8409 320.362 20.3835 319.822 20.0483C319.288 19.7131 318.657 19.5455 317.93 19.5455C317.129 19.5455 316.435 19.7443 315.85 20.142C315.271 20.5341 314.825 21.0455 314.512 21.6761C314.2 22.3068 314.043 22.983 314.043 23.7045V24.8636C314.043 25.8523 314.214 26.6903 314.555 27.3778C314.901 28.0597 315.381 28.5795 315.995 28.9375C316.609 29.2898 317.322 29.4659 318.134 29.4659C318.663 29.4659 319.14 29.392 319.566 29.2443C319.998 29.0909 320.37 28.8636 320.683 28.5625C320.995 28.2557 321.237 27.875 321.407 27.4205L323.35 27.9659C323.146 28.625 322.802 29.2045 322.319 29.7045C321.836 30.1989 321.239 30.5852 320.529 30.8636C319.819 31.1364 319.021 31.2727 318.134 31.2727ZM331.558 31.2727C330.467 31.2727 329.504 30.9972 328.668 30.446C327.833 29.8892 327.18 29.1051 326.708 28.0938C326.237 27.0767 326.001 25.875 326.001 24.4886C326.001 23.1136 326.237 21.9205 326.708 20.9091C327.18 19.8977 327.836 19.1165 328.677 18.5653C329.518 18.0142 330.489 17.7386 331.592 17.7386C332.444 17.7386 333.117 17.8807 333.612 18.1648C334.112 18.4432 334.492 18.7614 334.754 19.1193C335.021 19.4716 335.228 19.7614 335.376 19.9886H335.546V13.5455H337.558V31H335.614V28.9886H335.376C335.228 29.2273 335.018 29.5284 334.745 29.892C334.472 30.25 334.083 30.571 333.577 30.8551C333.072 31.1335 332.398 31.2727 331.558 31.2727ZM331.83 29.4659C332.637 29.4659 333.319 29.2557 333.876 28.8352C334.433 28.4091 334.856 27.821 335.146 27.071C335.435 26.3153 335.58 25.4432 335.58 24.4545C335.58 23.4773 335.438 22.6222 335.154 21.8892C334.87 21.1506 334.45 20.5767 333.893 20.1676C333.336 19.7528 332.648 19.5455 331.83 19.5455C330.978 19.5455 330.268 19.7642 329.7 20.2017C329.137 20.6335 328.714 21.2216 328.43 21.9659C328.151 22.7045 328.012 23.5341 328.012 24.4545C328.012 25.3864 328.154 26.233 328.438 26.9943C328.728 27.75 329.154 28.3523 329.717 28.8011C330.285 29.2443 330.989 29.4659 331.83 29.4659Z" fill="white"/>
<path d="M112 94H108.409V82.3636H112.159C113.288 82.3636 114.254 82.5966 115.057 83.0625C115.86 83.5246 116.475 84.1894 116.903 85.0568C117.331 85.9205 117.545 86.9545 117.545 88.1591C117.545 89.3712 117.33 90.4148 116.898 91.2898C116.466 92.161 115.837 92.8314 115.011 93.3011C114.186 93.767 113.182 94 112 94ZM109.818 92.75H111.909C112.871 92.75 113.669 92.5644 114.301 92.1932C114.934 91.822 115.405 91.2936 115.716 90.608C116.027 89.9223 116.182 89.1061 116.182 88.1591C116.182 87.2197 116.028 86.411 115.722 85.733C115.415 85.0511 114.956 84.5284 114.347 84.1648C113.737 83.7973 112.977 83.6136 112.068 83.6136H109.818V92.75ZM123.386 94.1818C122.545 94.1818 121.82 93.9962 121.21 93.625C120.604 93.25 120.136 92.7273 119.807 92.0568C119.481 91.3826 119.318 90.5985 119.318 89.7045C119.318 88.8106 119.481 88.0227 119.807 87.3409C120.136 86.6553 120.595 86.1212 121.182 85.7386C121.773 85.3523 122.462 85.1591 123.25 85.1591C123.705 85.1591 124.153 85.2348 124.597 85.3864C125.04 85.5379 125.443 85.7841 125.807 86.125C126.17 86.4621 126.46 86.9091 126.676 87.4659C126.892 88.0227 127 88.7083 127 89.5227V90.0909H120.273V88.9318H125.636C125.636 88.4394 125.538 88 125.341 87.6136C125.148 87.2273 124.871 86.9223 124.511 86.6989C124.155 86.4754 123.735 86.3636 123.25 86.3636C122.716 86.3636 122.254 86.4962 121.864 86.7614C121.477 87.0227 121.18 87.3636 120.972 87.7841C120.763 88.2045 120.659 88.6553 120.659 89.1364V89.9091C120.659 90.5682 120.773 91.1269 121 91.5852C121.231 92.0398 121.551 92.3864 121.96 92.625C122.369 92.8598 122.845 92.9773 123.386 92.9773C123.739 92.9773 124.057 92.928 124.341 92.8295C124.629 92.7273 124.877 92.5758 125.085 92.375C125.294 92.1705 125.455 91.9167 125.568 91.6136L126.864 91.9773C126.727 92.4167 126.498 92.803 126.176 93.1364C125.854 93.4659 125.456 93.7235 124.983 93.9091C124.509 94.0909 123.977 94.1818 123.386 94.1818ZM135.911 85.2727L132.683 94H131.32L128.092 85.2727H129.547L131.956 92.2273H132.047L134.456 85.2727H135.911ZM141.027 94.1818C140.186 94.1818 139.461 93.9962 138.851 93.625C138.245 93.25 137.777 92.7273 137.447 92.0568C137.122 91.3826 136.959 90.5985 136.959 89.7045C136.959 88.8106 137.122 88.0227 137.447 87.3409C137.777 86.6553 138.235 86.1212 138.822 85.7386C139.413 85.3523 140.103 85.1591 140.891 85.1591C141.345 85.1591 141.794 85.2348 142.237 85.3864C142.68 85.5379 143.084 85.7841 143.447 86.125C143.811 86.4621 144.101 86.9091 144.317 87.4659C144.533 88.0227 144.641 88.7083 144.641 89.5227V90.0909H137.913V88.9318H143.277C143.277 88.4394 143.179 88 142.982 87.6136C142.788 87.2273 142.512 86.9223 142.152 86.6989C141.796 86.4754 141.375 86.3636 140.891 86.3636C140.357 86.3636 139.894 86.4962 139.504 86.7614C139.118 87.0227 138.821 87.3636 138.612 87.7841C138.404 88.2045 138.3 88.6553 138.3 89.1364V89.9091C138.3 90.5682 138.413 91.1269 138.641 91.5852C138.872 92.0398 139.192 92.3864 139.601 92.625C140.01 92.8598 140.485 92.9773 141.027 92.9773C141.379 92.9773 141.697 92.928 141.982 92.8295C142.269 92.7273 142.518 92.5758 142.726 92.375C142.934 92.1705 143.095 91.9167 143.209 91.6136L144.504 91.9773C144.368 92.4167 144.139 92.803 143.817 93.1364C143.495 93.4659 143.097 93.7235 142.624 93.9091C142.15 94.0909 141.618 94.1818 141.027 94.1818ZM148.021 82.3636V94H146.68V82.3636H148.021ZM154.023 94.1818C153.235 94.1818 152.544 93.9943 151.949 93.6193C151.358 93.2443 150.896 92.7197 150.562 92.0455C150.233 91.3712 150.068 90.5833 150.068 89.6818C150.068 88.7727 150.233 87.9792 150.562 87.3011C150.896 86.6231 151.358 86.0966 151.949 85.7216C152.544 85.3466 153.235 85.1591 154.023 85.1591C154.811 85.1591 155.5 85.3466 156.091 85.7216C156.686 86.0966 157.148 86.6231 157.477 87.3011C157.811 87.9792 157.977 88.7727 157.977 89.6818C157.977 90.5833 157.811 91.3712 157.477 92.0455C157.148 92.7197 156.686 93.2443 156.091 93.6193C155.5 93.9943 154.811 94.1818 154.023 94.1818ZM154.023 92.9773C154.621 92.9773 155.114 92.8239 155.5 92.517C155.886 92.2102 156.172 91.8068 156.358 91.3068C156.544 90.8068 156.636 90.2652 156.636 89.6818C156.636 89.0985 156.544 88.5549 156.358 88.0511C156.172 87.5473 155.886 87.1402 155.5 86.8295C155.114 86.5189 154.621 86.3636 154.023 86.3636C153.424 86.3636 152.932 86.5189 152.545 86.8295C152.159 87.1402 151.873 87.5473 151.688 88.0511C151.502 88.5549 151.409 89.0985 151.409 89.6818C151.409 90.2652 151.502 90.8068 151.688 91.3068C151.873 91.8068 152.159 92.2102 152.545 92.517C152.932 92.8239 153.424 92.9773 154.023 92.9773ZM160.024 97.2727V85.2727H161.32V86.6591H161.479C161.577 86.5076 161.714 86.3144 161.888 86.0795C162.066 85.8409 162.32 85.6288 162.649 85.4432C162.982 85.2538 163.433 85.1591 164.001 85.1591C164.736 85.1591 165.384 85.3428 165.945 85.7102C166.505 86.0777 166.943 86.5985 167.257 87.2727C167.571 87.947 167.729 88.7424 167.729 89.6591C167.729 90.5833 167.571 91.3845 167.257 92.0625C166.943 92.7367 166.507 93.2595 165.95 93.6307C165.393 93.9981 164.751 94.1818 164.024 94.1818C163.464 94.1818 163.015 94.089 162.678 93.9034C162.34 93.714 162.081 93.5 161.899 93.2614C161.717 93.0189 161.577 92.8182 161.479 92.6591H161.365V97.2727H160.024ZM161.342 89.6364C161.342 90.2955 161.439 90.8769 161.632 91.3807C161.825 91.8807 162.107 92.2727 162.479 92.5568C162.85 92.8371 163.304 92.9773 163.842 92.9773C164.403 92.9773 164.871 92.8295 165.246 92.5341C165.625 92.2348 165.909 91.8333 166.098 91.3295C166.291 90.822 166.388 90.2576 166.388 89.6364C166.388 89.0227 166.293 88.4697 166.104 87.9773C165.918 87.4811 165.636 87.089 165.257 86.8011C164.882 86.5095 164.411 86.3636 163.842 86.3636C163.297 86.3636 162.839 86.5019 162.467 86.7784C162.096 87.0511 161.816 87.4337 161.626 87.9261C161.437 88.4148 161.342 88.9848 161.342 89.6364ZM169.774 94V85.2727H171.07V86.6364H171.183C171.365 86.1705 171.659 85.8087 172.064 85.5511C172.469 85.2898 172.956 85.1591 173.524 85.1591C174.1 85.1591 174.579 85.2898 174.962 85.5511C175.348 85.8087 175.649 86.1705 175.865 86.6364H175.956C176.179 86.1856 176.515 85.8277 176.962 85.5625C177.409 85.2936 177.945 85.1591 178.57 85.1591C179.35 85.1591 179.988 85.4034 180.484 85.892C180.981 86.3769 181.229 87.1326 181.229 88.1591V94H179.888V88.1591C179.888 87.5152 179.712 87.0549 179.359 86.7784C179.007 86.5019 178.592 86.3636 178.115 86.3636C177.501 86.3636 177.026 86.5492 176.689 86.9205C176.352 87.2879 176.183 87.7538 176.183 88.3182V94H174.82V88.0227C174.82 87.5265 174.659 87.1269 174.337 86.8239C174.015 86.517 173.6 86.3636 173.092 86.3636C172.744 86.3636 172.418 86.4564 172.115 86.642C171.816 86.8277 171.573 87.0852 171.388 87.4148C171.206 87.7405 171.115 88.1174 171.115 88.5455V94H169.774ZM187.339 94.1818C186.499 94.1818 185.773 93.9962 185.163 93.625C184.557 93.25 184.089 92.7273 183.76 92.0568C183.434 91.3826 183.271 90.5985 183.271 89.7045C183.271 88.8106 183.434 88.0227 183.76 87.3409C184.089 86.6553 184.548 86.1212 185.135 85.7386C185.726 85.3523 186.415 85.1591 187.203 85.1591C187.658 85.1591 188.107 85.2348 188.55 85.3864C188.993 85.5379 189.396 85.7841 189.76 86.125C190.124 86.4621 190.413 86.9091 190.629 87.4659C190.845 88.0227 190.953 88.7083 190.953 89.5227V90.0909H184.226V88.9318H189.589C189.589 88.4394 189.491 88 189.294 87.6136C189.101 87.2273 188.824 86.9223 188.464 86.6989C188.108 86.4754 187.688 86.3636 187.203 86.3636C186.669 86.3636 186.207 86.4962 185.817 86.7614C185.43 87.0227 185.133 87.3636 184.925 87.7841C184.716 88.2045 184.612 88.6553 184.612 89.1364V89.9091C184.612 90.5682 184.726 91.1269 184.953 91.5852C185.184 92.0398 185.504 92.3864 185.913 92.625C186.322 92.8598 186.798 92.9773 187.339 92.9773C187.692 92.9773 188.01 92.928 188.294 92.8295C188.582 92.7273 188.83 92.5758 189.038 92.375C189.247 92.1705 189.408 91.9167 189.521 91.6136L190.817 91.9773C190.68 92.4167 190.451 92.803 190.129 93.1364C189.807 93.4659 189.41 93.7235 188.936 93.9091C188.463 94.0909 187.93 94.1818 187.339 94.1818ZM194.334 88.75V94H192.993V85.2727H194.288V86.6364H194.402C194.607 86.1932 194.917 85.8371 195.334 85.5682C195.75 85.2955 196.288 85.1591 196.947 85.1591C197.538 85.1591 198.055 85.2803 198.499 85.5227C198.942 85.7614 199.286 86.125 199.533 86.6136C199.779 87.0985 199.902 87.7121 199.902 88.4545V94H198.561V88.5455C198.561 87.8598 198.383 87.3258 198.027 86.9432C197.671 86.5568 197.182 86.3636 196.561 86.3636C196.133 86.3636 195.75 86.4564 195.413 86.642C195.08 86.8277 194.817 87.0985 194.624 87.4545C194.43 87.8106 194.334 88.2424 194.334 88.75ZM206.148 85.2727V86.4091H201.625V85.2727H206.148ZM202.943 83.1818H204.284V91.5C204.284 91.8788 204.339 92.1629 204.449 92.3523C204.563 92.5379 204.706 92.6629 204.881 92.7273C205.059 92.7879 205.246 92.8182 205.443 92.8182C205.591 92.8182 205.712 92.8106 205.807 92.7955C205.902 92.7765 205.977 92.7614 206.034 92.75L206.307 93.9545C206.216 93.9886 206.089 94.0227 205.926 94.0568C205.763 94.0947 205.557 94.1136 205.307 94.1136C204.928 94.1136 204.557 94.0322 204.193 93.8693C203.833 93.7064 203.534 93.4583 203.295 93.125C203.061 92.7917 202.943 92.3712 202.943 91.8636V83.1818ZM216.21 94.1818C215.422 94.1818 214.731 93.9943 214.136 93.6193C213.545 93.2443 213.083 92.7197 212.75 92.0455C212.42 91.3712 212.256 90.5833 212.256 89.6818C212.256 88.7727 212.42 87.9792 212.75 87.3011C213.083 86.6231 213.545 86.0966 214.136 85.7216C214.731 85.3466 215.422 85.1591 216.21 85.1591C216.998 85.1591 217.688 85.3466 218.278 85.7216C218.873 86.0966 219.335 86.6231 219.665 87.3011C219.998 87.9792 220.165 88.7727 220.165 89.6818C220.165 90.5833 219.998 91.3712 219.665 92.0455C219.335 92.7197 218.873 93.2443 218.278 93.6193C217.688 93.9943 216.998 94.1818 216.21 94.1818ZM216.21 92.9773C216.809 92.9773 217.301 92.8239 217.688 92.517C218.074 92.2102 218.36 91.8068 218.545 91.3068C218.731 90.8068 218.824 90.2652 218.824 89.6818C218.824 89.0985 218.731 88.5549 218.545 88.0511C218.36 87.5473 218.074 87.1402 217.688 86.8295C217.301 86.5189 216.809 86.3636 216.21 86.3636C215.612 86.3636 215.119 86.5189 214.733 86.8295C214.347 87.1402 214.061 87.5473 213.875 88.0511C213.689 88.5549 213.597 89.0985 213.597 89.6818C213.597 90.2652 213.689 90.8068 213.875 91.3068C214.061 91.8068 214.347 92.2102 214.733 92.517C215.119 92.8239 215.612 92.9773 216.21 92.9773ZM226.098 85.2727V86.4091H221.393V85.2727H226.098ZM222.803 94V84.0682C222.803 83.5682 222.92 83.1515 223.155 82.8182C223.39 82.4848 223.695 82.2348 224.07 82.0682C224.445 81.9015 224.84 81.8182 225.257 81.8182C225.587 81.8182 225.856 81.8447 226.064 81.8977C226.272 81.9508 226.428 82 226.53 82.0455L226.143 83.2045C226.075 83.1818 225.981 83.1534 225.859 83.1193C225.742 83.0852 225.587 83.0682 225.393 83.0682C224.95 83.0682 224.63 83.1799 224.433 83.4034C224.24 83.6269 224.143 83.9545 224.143 84.3864V94H222.803ZM235.045 94.2045C234.492 94.2045 233.991 94.1004 233.54 93.892C233.089 93.6799 232.731 93.375 232.466 92.9773C232.201 92.5758 232.068 92.0909 232.068 91.5227C232.068 91.0227 232.167 90.6174 232.364 90.3068C232.561 89.9924 232.824 89.7462 233.153 89.5682C233.483 89.3902 233.847 89.2576 234.244 89.1705C234.646 89.0795 235.049 89.0076 235.455 88.9545C235.985 88.8864 236.415 88.8352 236.744 88.8011C237.078 88.7633 237.32 88.7008 237.472 88.6136C237.627 88.5265 237.705 88.375 237.705 88.1591V88.1136C237.705 87.553 237.551 87.1174 237.244 86.8068C236.941 86.4962 236.481 86.3409 235.864 86.3409C235.223 86.3409 234.722 86.4811 234.358 86.7614C233.994 87.0417 233.739 87.3409 233.591 87.6591L232.318 87.2045C232.545 86.6742 232.848 86.2614 233.227 85.9659C233.61 85.6667 234.027 85.4583 234.477 85.3409C234.932 85.2197 235.379 85.1591 235.818 85.1591C236.098 85.1591 236.42 85.1932 236.784 85.2614C237.152 85.3258 237.506 85.4602 237.847 85.6648C238.191 85.8693 238.477 86.178 238.705 86.5909C238.932 87.0038 239.045 87.5568 239.045 88.25V94H237.705V92.8182H237.636C237.545 93.0076 237.394 93.2102 237.182 93.4261C236.97 93.642 236.688 93.8258 236.335 93.9773C235.983 94.1288 235.553 94.2045 235.045 94.2045ZM235.25 93C235.78 93 236.227 92.8958 236.591 92.6875C236.958 92.4792 237.235 92.2102 237.42 91.8807C237.61 91.5511 237.705 91.2045 237.705 90.8409V89.6136C237.648 89.6818 237.523 89.7443 237.33 89.8011C237.14 89.8542 236.92 89.9015 236.67 89.9432C236.424 89.9811 236.184 90.0152 235.949 90.0455C235.718 90.072 235.53 90.0947 235.386 90.1136C235.038 90.1591 234.712 90.233 234.409 90.3352C234.11 90.4337 233.867 90.5833 233.682 90.7841C233.5 90.9811 233.409 91.25 233.409 91.5909C233.409 92.0568 233.581 92.4091 233.926 92.6477C234.275 92.8826 234.716 93 235.25 93ZM241.493 97.2727V85.2727H242.788V86.6591H242.947C243.046 86.5076 243.182 86.3144 243.357 86.0795C243.535 85.8409 243.788 85.6288 244.118 85.4432C244.451 85.2538 244.902 85.1591 245.47 85.1591C246.205 85.1591 246.853 85.3428 247.413 85.7102C247.974 86.0777 248.411 86.5985 248.726 87.2727C249.04 87.947 249.197 88.7424 249.197 89.6591C249.197 90.5833 249.04 91.3845 248.726 92.0625C248.411 92.7367 247.976 93.2595 247.419 93.6307C246.862 93.9981 246.22 94.1818 245.493 94.1818C244.932 94.1818 244.483 94.089 244.146 93.9034C243.809 93.714 243.55 93.5 243.368 93.2614C243.186 93.0189 243.046 92.8182 242.947 92.6591H242.834V97.2727H241.493ZM242.811 89.6364C242.811 90.2955 242.908 90.8769 243.101 91.3807C243.294 91.8807 243.576 92.2727 243.947 92.5568C244.319 92.8371 244.773 92.9773 245.311 92.9773C245.872 92.9773 246.339 92.8295 246.714 92.5341C247.093 92.2348 247.377 91.8333 247.567 91.3295C247.76 90.822 247.857 90.2576 247.857 89.6364C247.857 89.0227 247.762 88.4697 247.572 87.9773C247.387 87.4811 247.105 87.089 246.726 86.8011C246.351 86.5095 245.879 86.3636 245.311 86.3636C244.766 86.3636 244.307 86.5019 243.936 86.7784C243.565 87.0511 243.285 87.4337 243.095 87.9261C242.906 88.4148 242.811 88.9848 242.811 89.6364ZM251.243 97.2727V85.2727H252.538V86.6591H252.697C252.796 86.5076 252.932 86.3144 253.107 86.0795C253.285 85.8409 253.538 85.6288 253.868 85.4432C254.201 85.2538 254.652 85.1591 255.22 85.1591C255.955 85.1591 256.603 85.3428 257.163 85.7102C257.724 86.0777 258.161 86.5985 258.476 87.2727C258.79 87.947 258.947 88.7424 258.947 89.6591C258.947 90.5833 258.79 91.3845 258.476 92.0625C258.161 92.7367 257.726 93.2595 257.169 93.6307C256.612 93.9981 255.97 94.1818 255.243 94.1818C254.682 94.1818 254.233 94.089 253.896 93.9034C253.559 93.714 253.3 93.5 253.118 93.2614C252.936 93.0189 252.796 92.8182 252.697 92.6591H252.584V97.2727H251.243ZM252.561 89.6364C252.561 90.2955 252.658 90.8769 252.851 91.3807C253.044 91.8807 253.326 92.2727 253.697 92.5568C254.069 92.8371 254.523 92.9773 255.061 92.9773C255.622 92.9773 256.089 92.8295 256.464 92.5341C256.843 92.2348 257.127 91.8333 257.317 91.3295C257.51 90.822 257.607 90.2576 257.607 89.6364C257.607 89.0227 257.512 88.4697 257.322 87.9773C257.137 87.4811 256.855 87.089 256.476 86.8011C256.101 86.5095 255.629 86.3636 255.061 86.3636C254.516 86.3636 254.057 86.5019 253.686 86.7784C253.315 87.0511 253.035 87.4337 252.845 87.9261C252.656 88.4148 252.561 88.9848 252.561 89.6364ZM268.061 94.2045C267.508 94.2045 267.006 94.1004 266.555 93.892C266.105 93.6799 265.747 93.375 265.482 92.9773C265.216 92.5758 265.084 92.0909 265.084 91.5227C265.084 91.0227 265.182 90.6174 265.379 90.3068C265.576 89.9924 265.839 89.7462 266.169 89.5682C266.499 89.3902 266.862 89.2576 267.26 89.1705C267.661 89.0795 268.065 89.0076 268.47 88.9545C269 88.8864 269.43 88.8352 269.76 88.8011C270.093 88.7633 270.336 88.7008 270.487 88.6136C270.643 88.5265 270.72 88.375 270.72 88.1591V88.1136C270.72 87.553 270.567 87.1174 270.26 86.8068C269.957 86.4962 269.497 86.3409 268.879 86.3409C268.239 86.3409 267.737 86.4811 267.374 86.7614C267.01 87.0417 266.754 87.3409 266.607 87.6591L265.334 87.2045C265.561 86.6742 265.864 86.2614 266.243 85.9659C266.625 85.6667 267.042 85.4583 267.493 85.3409C267.947 85.2197 268.394 85.1591 268.834 85.1591C269.114 85.1591 269.436 85.1932 269.8 85.2614C270.167 85.3258 270.521 85.4602 270.862 85.6648C271.207 85.8693 271.493 86.178 271.72 86.5909C271.947 87.0038 272.061 87.5568 272.061 88.25V94H270.72V92.8182H270.652C270.561 93.0076 270.41 93.2102 270.197 93.4261C269.985 93.642 269.703 93.8258 269.351 93.9773C268.999 94.1288 268.569 94.2045 268.061 94.2045ZM268.266 93C268.796 93 269.243 92.8958 269.607 92.6875C269.974 92.4792 270.25 92.2102 270.436 91.8807C270.625 91.5511 270.72 91.2045 270.72 90.8409V89.6136C270.663 89.6818 270.538 89.7443 270.345 89.8011C270.156 89.8542 269.936 89.9015 269.686 89.9432C269.44 89.9811 269.199 90.0152 268.964 90.0455C268.733 90.072 268.546 90.0947 268.402 90.1136C268.054 90.1591 267.728 90.233 267.425 90.3352C267.125 90.4337 266.883 90.5833 266.697 90.7841C266.516 90.9811 266.425 91.25 266.425 91.5909C266.425 92.0568 266.597 92.4091 266.942 92.6477C267.29 92.8826 267.732 93 268.266 93ZM275.849 88.75V94H274.509V85.2727H275.804V86.6364H275.918C276.122 86.1932 276.433 85.8371 276.849 85.5682C277.266 85.2955 277.804 85.1591 278.463 85.1591C279.054 85.1591 279.571 85.2803 280.014 85.5227C280.457 85.7614 280.802 86.125 281.048 86.6136C281.295 87.0985 281.418 87.7121 281.418 88.4545V94H280.077V88.5455C280.077 87.8598 279.899 87.3258 279.543 86.9432C279.187 86.5568 278.698 86.3636 278.077 86.3636C277.649 86.3636 277.266 86.4564 276.929 86.642C276.596 86.8277 276.332 87.0985 276.139 87.4545C275.946 87.8106 275.849 88.2424 275.849 88.75ZM287.163 94.1818C286.436 94.1818 285.794 93.9981 285.237 93.6307C284.68 93.2595 284.245 92.7367 283.93 92.0625C283.616 91.3845 283.459 90.5833 283.459 89.6591C283.459 88.7424 283.616 87.947 283.93 87.2727C284.245 86.5985 284.682 86.0777 285.243 85.7102C285.804 85.3428 286.451 85.1591 287.186 85.1591C287.754 85.1591 288.203 85.2538 288.533 85.4432C288.866 85.6288 289.12 85.8409 289.294 86.0795C289.472 86.3144 289.61 86.5076 289.709 86.6591H289.822V82.3636H291.163V94H289.868V92.6591H289.709C289.61 92.8182 289.47 93.0189 289.288 93.2614C289.107 93.5 288.847 93.714 288.51 93.9034C288.173 94.089 287.724 94.1818 287.163 94.1818ZM287.345 92.9773C287.883 92.9773 288.338 92.8371 288.709 92.5568C289.08 92.2727 289.362 91.8807 289.555 91.3807C289.749 90.8769 289.845 90.2955 289.845 89.6364C289.845 88.9848 289.75 88.4148 289.561 87.9261C289.372 87.4337 289.091 87.0511 288.72 86.7784C288.349 86.5019 287.891 86.3636 287.345 86.3636C286.777 86.3636 286.304 86.5095 285.925 86.8011C285.55 87.089 285.268 87.4811 285.078 87.9773C284.893 88.4697 284.8 89.0227 284.8 89.6364C284.8 90.2576 284.894 90.822 285.084 91.3295C285.277 91.8333 285.561 92.2348 285.936 92.5341C286.315 92.8295 286.785 92.9773 287.345 92.9773ZM108.227 116.273V104.273H109.523V105.659H109.682C109.78 105.508 109.917 105.314 110.091 105.08C110.269 104.841 110.523 104.629 110.852 104.443C111.186 104.254 111.636 104.159 112.205 104.159C112.939 104.159 113.587 104.343 114.148 104.71C114.708 105.078 115.146 105.598 115.46 106.273C115.775 106.947 115.932 107.742 115.932 108.659C115.932 109.583 115.775 110.384 115.46 111.062C115.146 111.737 114.71 112.259 114.153 112.631C113.597 112.998 112.955 113.182 112.227 113.182C111.667 113.182 111.218 113.089 110.881 112.903C110.544 112.714 110.284 112.5 110.102 112.261C109.92 112.019 109.78 111.818 109.682 111.659H109.568V116.273H108.227ZM109.545 108.636C109.545 109.295 109.642 109.877 109.835 110.381C110.028 110.881 110.311 111.273 110.682 111.557C111.053 111.837 111.508 111.977 112.045 111.977C112.606 111.977 113.074 111.83 113.449 111.534C113.828 111.235 114.112 110.833 114.301 110.33C114.494 109.822 114.591 109.258 114.591 108.636C114.591 108.023 114.496 107.47 114.307 106.977C114.121 106.481 113.839 106.089 113.46 105.801C113.085 105.509 112.614 105.364 112.045 105.364C111.5 105.364 111.042 105.502 110.67 105.778C110.299 106.051 110.019 106.434 109.83 106.926C109.64 107.415 109.545 107.985 109.545 108.636ZM120.545 113.205C119.992 113.205 119.491 113.1 119.04 112.892C118.589 112.68 118.231 112.375 117.966 111.977C117.701 111.576 117.568 111.091 117.568 110.523C117.568 110.023 117.667 109.617 117.864 109.307C118.061 108.992 118.324 108.746 118.653 108.568C118.983 108.39 119.347 108.258 119.744 108.17C120.146 108.08 120.549 108.008 120.955 107.955C121.485 107.886 121.915 107.835 122.244 107.801C122.578 107.763 122.82 107.701 122.972 107.614C123.127 107.527 123.205 107.375 123.205 107.159V107.114C123.205 106.553 123.051 106.117 122.744 105.807C122.441 105.496 121.981 105.341 121.364 105.341C120.723 105.341 120.222 105.481 119.858 105.761C119.494 106.042 119.239 106.341 119.091 106.659L117.818 106.205C118.045 105.674 118.348 105.261 118.727 104.966C119.11 104.667 119.527 104.458 119.977 104.341C120.432 104.22 120.879 104.159 121.318 104.159C121.598 104.159 121.92 104.193 122.284 104.261C122.652 104.326 123.006 104.46 123.347 104.665C123.691 104.869 123.977 105.178 124.205 105.591C124.432 106.004 124.545 106.557 124.545 107.25V113H123.205V111.818H123.136C123.045 112.008 122.894 112.21 122.682 112.426C122.47 112.642 122.188 112.826 121.835 112.977C121.483 113.129 121.053 113.205 120.545 113.205ZM120.75 112C121.28 112 121.727 111.896 122.091 111.688C122.458 111.479 122.735 111.21 122.92 110.881C123.11 110.551 123.205 110.205 123.205 109.841V108.614C123.148 108.682 123.023 108.744 122.83 108.801C122.64 108.854 122.42 108.902 122.17 108.943C121.924 108.981 121.684 109.015 121.449 109.045C121.218 109.072 121.03 109.095 120.886 109.114C120.538 109.159 120.212 109.233 119.909 109.335C119.61 109.434 119.367 109.583 119.182 109.784C119 109.981 118.909 110.25 118.909 110.591C118.909 111.057 119.081 111.409 119.426 111.648C119.775 111.883 120.216 112 120.75 112ZM126.993 113V104.273H128.288V105.591H128.379C128.538 105.159 128.826 104.809 129.243 104.54C129.66 104.271 130.129 104.136 130.652 104.136C130.75 104.136 130.874 104.138 131.021 104.142C131.169 104.146 131.281 104.152 131.357 104.159V105.523C131.311 105.511 131.207 105.494 131.044 105.472C130.885 105.445 130.716 105.432 130.538 105.432C130.114 105.432 129.735 105.521 129.402 105.699C129.072 105.873 128.811 106.116 128.618 106.426C128.429 106.733 128.334 107.083 128.334 107.477V113H126.993ZM137.288 104.273V105.409H132.766V104.273H137.288ZM134.084 102.182H135.425V110.5C135.425 110.879 135.48 111.163 135.589 111.352C135.703 111.538 135.847 111.663 136.021 111.727C136.199 111.788 136.387 111.818 136.584 111.818C136.732 111.818 136.853 111.811 136.947 111.795C137.042 111.777 137.118 111.761 137.175 111.75L137.447 112.955C137.357 112.989 137.23 113.023 137.067 113.057C136.904 113.095 136.697 113.114 136.447 113.114C136.069 113.114 135.697 113.032 135.334 112.869C134.974 112.706 134.675 112.458 134.436 112.125C134.201 111.792 134.084 111.371 134.084 110.864V102.182ZM140.646 107.75V113H139.305V104.273H140.601V105.636H140.714C140.919 105.193 141.23 104.837 141.646 104.568C142.063 104.295 142.601 104.159 143.26 104.159C143.851 104.159 144.368 104.28 144.811 104.523C145.254 104.761 145.599 105.125 145.845 105.614C146.091 106.098 146.214 106.712 146.214 107.455V113H144.874V107.545C144.874 106.86 144.696 106.326 144.339 105.943C143.983 105.557 143.495 105.364 142.874 105.364C142.446 105.364 142.063 105.456 141.726 105.642C141.393 105.828 141.129 106.098 140.936 106.455C140.743 106.811 140.646 107.242 140.646 107.75ZM152.324 113.182C151.483 113.182 150.758 112.996 150.148 112.625C149.542 112.25 149.074 111.727 148.744 111.057C148.419 110.383 148.256 109.598 148.256 108.705C148.256 107.811 148.419 107.023 148.744 106.341C149.074 105.655 149.532 105.121 150.119 104.739C150.71 104.352 151.4 104.159 152.188 104.159C152.642 104.159 153.091 104.235 153.534 104.386C153.977 104.538 154.381 104.784 154.744 105.125C155.108 105.462 155.398 105.909 155.614 106.466C155.83 107.023 155.938 107.708 155.938 108.523V109.091H149.21V107.932H154.574C154.574 107.439 154.475 107 154.278 106.614C154.085 106.227 153.809 105.922 153.449 105.699C153.093 105.475 152.672 105.364 152.188 105.364C151.653 105.364 151.191 105.496 150.801 105.761C150.415 106.023 150.117 106.364 149.909 106.784C149.701 107.205 149.597 107.655 149.597 108.136V108.909C149.597 109.568 149.71 110.127 149.938 110.585C150.169 111.04 150.489 111.386 150.898 111.625C151.307 111.86 151.782 111.977 152.324 111.977C152.676 111.977 152.994 111.928 153.278 111.83C153.566 111.727 153.814 111.576 154.023 111.375C154.231 111.17 154.392 110.917 154.506 110.614L155.801 110.977C155.665 111.417 155.436 111.803 155.114 112.136C154.792 112.466 154.394 112.723 153.92 112.909C153.447 113.091 152.915 113.182 152.324 113.182ZM157.977 113V104.273H159.273V105.591H159.364C159.523 105.159 159.811 104.809 160.227 104.54C160.644 104.271 161.114 104.136 161.636 104.136C161.735 104.136 161.858 104.138 162.006 104.142C162.153 104.146 162.265 104.152 162.341 104.159V105.523C162.295 105.511 162.191 105.494 162.028 105.472C161.869 105.445 161.701 105.432 161.523 105.432C161.098 105.432 160.72 105.521 160.386 105.699C160.057 105.873 159.795 106.116 159.602 106.426C159.413 106.733 159.318 107.083 159.318 107.477V113H157.977ZM174.612 106.227L173.408 106.568C173.332 106.367 173.22 106.172 173.072 105.983C172.929 105.79 172.732 105.631 172.482 105.506C172.232 105.381 171.911 105.318 171.521 105.318C170.987 105.318 170.542 105.441 170.186 105.688C169.834 105.93 169.658 106.239 169.658 106.614C169.658 106.947 169.779 107.21 170.021 107.403C170.264 107.597 170.643 107.758 171.158 107.886L172.453 108.205C173.233 108.394 173.815 108.684 174.197 109.074C174.58 109.46 174.771 109.958 174.771 110.568C174.771 111.068 174.627 111.515 174.339 111.909C174.055 112.303 173.658 112.614 173.146 112.841C172.635 113.068 172.04 113.182 171.362 113.182C170.472 113.182 169.735 112.989 169.152 112.602C168.569 112.216 168.199 111.652 168.044 110.909L169.317 110.591C169.438 111.061 169.667 111.413 170.004 111.648C170.345 111.883 170.79 112 171.339 112C171.964 112 172.461 111.867 172.828 111.602C173.199 111.333 173.385 111.011 173.385 110.636C173.385 110.333 173.279 110.08 173.067 109.875C172.855 109.667 172.529 109.511 172.089 109.409L170.635 109.068C169.836 108.879 169.249 108.585 168.874 108.188C168.502 107.786 168.317 107.284 168.317 106.682C168.317 106.189 168.455 105.754 168.732 105.375C169.012 104.996 169.393 104.699 169.874 104.483C170.358 104.267 170.908 104.159 171.521 104.159C172.385 104.159 173.063 104.348 173.555 104.727C174.052 105.106 174.404 105.606 174.612 106.227ZM180.449 113.182C179.608 113.182 178.883 112.996 178.273 112.625C177.667 112.25 177.199 111.727 176.869 111.057C176.544 110.383 176.381 109.598 176.381 108.705C176.381 107.811 176.544 107.023 176.869 106.341C177.199 105.655 177.657 105.121 178.244 104.739C178.835 104.352 179.525 104.159 180.312 104.159C180.767 104.159 181.216 104.235 181.659 104.386C182.102 104.538 182.506 104.784 182.869 105.125C183.233 105.462 183.523 105.909 183.739 106.466C183.955 107.023 184.062 107.708 184.062 108.523V109.091H177.335V107.932H182.699C182.699 107.439 182.6 107 182.403 106.614C182.21 106.227 181.934 105.922 181.574 105.699C181.218 105.475 180.797 105.364 180.312 105.364C179.778 105.364 179.316 105.496 178.926 105.761C178.54 106.023 178.242 106.364 178.034 106.784C177.826 107.205 177.722 107.655 177.722 108.136V108.909C177.722 109.568 177.835 110.127 178.062 110.585C178.294 111.04 178.614 111.386 179.023 111.625C179.432 111.86 179.907 111.977 180.449 111.977C180.801 111.977 181.119 111.928 181.403 111.83C181.691 111.727 181.939 111.576 182.148 111.375C182.356 111.17 182.517 110.917 182.631 110.614L183.926 110.977C183.79 111.417 183.561 111.803 183.239 112.136C182.917 112.466 182.519 112.723 182.045 112.909C181.572 113.091 181.04 113.182 180.449 113.182ZM187.443 101.364V113H186.102V101.364H187.443ZM193.558 113.182C192.717 113.182 191.992 112.996 191.382 112.625C190.776 112.25 190.308 111.727 189.979 111.057C189.653 110.383 189.49 109.598 189.49 108.705C189.49 107.811 189.653 107.023 189.979 106.341C190.308 105.655 190.767 105.121 191.354 104.739C191.945 104.352 192.634 104.159 193.422 104.159C193.876 104.159 194.325 104.235 194.768 104.386C195.212 104.538 195.615 104.784 195.979 105.125C196.342 105.462 196.632 105.909 196.848 106.466C197.064 107.023 197.172 107.708 197.172 108.523V109.091H190.445V107.932H195.808C195.808 107.439 195.71 107 195.513 106.614C195.32 106.227 195.043 105.922 194.683 105.699C194.327 105.475 193.907 105.364 193.422 105.364C192.888 105.364 192.426 105.496 192.036 105.761C191.649 106.023 191.352 106.364 191.143 106.784C190.935 107.205 190.831 107.655 190.831 108.136V108.909C190.831 109.568 190.945 110.127 191.172 110.585C191.403 111.04 191.723 111.386 192.132 111.625C192.541 111.86 193.017 111.977 193.558 111.977C193.911 111.977 194.229 111.928 194.513 111.83C194.801 111.727 195.049 111.576 195.257 111.375C195.465 111.17 195.626 110.917 195.74 110.614L197.036 110.977C196.899 111.417 196.67 111.803 196.348 112.136C196.026 112.466 195.628 112.723 195.155 112.909C194.681 113.091 194.149 113.182 193.558 113.182ZM202.757 113.182C201.939 113.182 201.234 112.989 200.643 112.602C200.053 112.216 199.598 111.684 199.28 111.006C198.962 110.328 198.803 109.553 198.803 108.682C198.803 107.795 198.965 107.013 199.291 106.335C199.621 105.653 200.079 105.121 200.666 104.739C201.257 104.352 201.946 104.159 202.734 104.159C203.348 104.159 203.901 104.273 204.393 104.5C204.886 104.727 205.289 105.045 205.604 105.455C205.918 105.864 206.113 106.341 206.189 106.886H204.848C204.746 106.489 204.518 106.136 204.166 105.83C203.818 105.519 203.348 105.364 202.757 105.364C202.234 105.364 201.776 105.5 201.382 105.773C200.992 106.042 200.687 106.422 200.467 106.915C200.251 107.403 200.143 107.977 200.143 108.636C200.143 109.311 200.25 109.898 200.462 110.398C200.678 110.898 200.981 111.286 201.371 111.562C201.765 111.839 202.227 111.977 202.757 111.977C203.106 111.977 203.422 111.917 203.706 111.795C203.99 111.674 204.231 111.5 204.428 111.273C204.625 111.045 204.765 110.773 204.848 110.455H206.189C206.113 110.97 205.926 111.434 205.626 111.847C205.331 112.256 204.939 112.581 204.45 112.824C203.965 113.062 203.401 113.182 202.757 113.182ZM211.945 104.273V105.409H207.422V104.273H211.945ZM208.74 102.182H210.081V110.5C210.081 110.879 210.136 111.163 210.246 111.352C210.359 111.538 210.503 111.663 210.678 111.727C210.856 111.788 211.043 111.818 211.24 111.818C211.388 111.818 211.509 111.811 211.604 111.795C211.698 111.777 211.774 111.761 211.831 111.75L212.104 112.955C212.013 112.989 211.886 113.023 211.723 113.057C211.56 113.095 211.354 113.114 211.104 113.114C210.725 113.114 210.354 113.032 209.99 112.869C209.63 112.706 209.331 112.458 209.092 112.125C208.857 111.792 208.74 111.371 208.74 110.864V102.182ZM213.962 113V104.273H215.303V113H213.962ZM214.643 102.818C214.382 102.818 214.157 102.729 213.967 102.551C213.782 102.373 213.689 102.159 213.689 101.909C213.689 101.659 213.782 101.445 213.967 101.267C214.157 101.089 214.382 101 214.643 101C214.905 101 215.128 101.089 215.314 101.267C215.503 101.445 215.598 101.659 215.598 101.909C215.598 102.159 215.503 102.373 215.314 102.551C215.128 102.729 214.905 102.818 214.643 102.818ZM221.304 113.182C220.516 113.182 219.825 112.994 219.23 112.619C218.639 112.244 218.177 111.72 217.844 111.045C217.514 110.371 217.349 109.583 217.349 108.682C217.349 107.773 217.514 106.979 217.844 106.301C218.177 105.623 218.639 105.097 219.23 104.722C219.825 104.347 220.516 104.159 221.304 104.159C222.092 104.159 222.781 104.347 223.372 104.722C223.967 105.097 224.429 105.623 224.759 106.301C225.092 106.979 225.259 107.773 225.259 108.682C225.259 109.583 225.092 110.371 224.759 111.045C224.429 111.72 223.967 112.244 223.372 112.619C222.781 112.994 222.092 113.182 221.304 113.182ZM221.304 111.977C221.902 111.977 222.395 111.824 222.781 111.517C223.168 111.21 223.454 110.807 223.639 110.307C223.825 109.807 223.918 109.265 223.918 108.682C223.918 108.098 223.825 107.555 223.639 107.051C223.454 106.547 223.168 106.14 222.781 105.83C222.395 105.519 221.902 105.364 221.304 105.364C220.705 105.364 220.213 105.519 219.827 105.83C219.44 106.14 219.154 106.547 218.969 107.051C218.783 107.555 218.69 108.098 218.69 108.682C218.69 109.265 218.783 109.807 218.969 110.307C219.154 110.807 219.44 111.21 219.827 111.517C220.213 111.824 220.705 111.977 221.304 111.977ZM228.646 107.75V113H227.305V104.273H228.601V105.636H228.714C228.919 105.193 229.23 104.837 229.646 104.568C230.063 104.295 230.601 104.159 231.26 104.159C231.851 104.159 232.368 104.28 232.811 104.523C233.254 104.761 233.599 105.125 233.845 105.614C234.091 106.098 234.214 106.712 234.214 107.455V113H232.874V107.545C232.874 106.86 232.696 106.326 232.339 105.943C231.983 105.557 231.495 105.364 230.874 105.364C230.446 105.364 230.063 105.456 229.726 105.642C229.393 105.828 229.129 106.098 228.936 106.455C228.743 106.811 228.646 107.242 228.646 107.75Z" fill="white"/>
<path d="M8.36364 7.36364H9.77273V15.6818C9.77273 16.4242 9.63636 17.0549 9.36364 17.5739C9.09091 18.0928 8.70644 18.4867 8.21023 18.7557C7.71402 19.0246 7.12879 19.1591 6.45455 19.1591C5.81818 19.1591 5.25189 19.0436 4.75568 18.8125C4.25947 18.5777 3.86932 18.2443 3.58523 17.8125C3.30114 17.3807 3.15909 16.8674 3.15909 16.2727H4.54545C4.54545 16.6023 4.62689 16.8902 4.78977 17.1364C4.95644 17.3788 5.18371 17.5682 5.47159 17.7045C5.75947 17.8409 6.08712 17.9091 6.45455 17.9091C6.85985 17.9091 7.20455 17.8239 7.48864 17.6534C7.77273 17.483 7.98864 17.233 8.13636 16.9034C8.28788 16.5701 8.36364 16.1629 8.36364 15.6818V7.36364ZM14.983 19.2045C14.4299 19.2045 13.928 19.1004 13.4773 18.892C13.0265 18.6799 12.6686 18.375 12.4034 17.9773C12.1383 17.5758 12.0057 17.0909 12.0057 16.5227C12.0057 16.0227 12.1042 15.6174 12.3011 15.3068C12.4981 14.9924 12.7614 14.7462 13.0909 14.5682C13.4205 14.3902 13.7841 14.2576 14.1818 14.1705C14.5833 14.0795 14.9867 14.0076 15.392 13.9545C15.9223 13.8864 16.3523 13.8352 16.6818 13.8011C17.0152 13.7633 17.2576 13.7008 17.4091 13.6136C17.5644 13.5265 17.642 13.375 17.642 13.1591V13.1136C17.642 12.553 17.4886 12.1174 17.1818 11.8068C16.8788 11.4962 16.4186 11.3409 15.8011 11.3409C15.161 11.3409 14.6591 11.4811 14.2955 11.7614C13.9318 12.0417 13.6761 12.3409 13.5284 12.6591L12.2557 12.2045C12.483 11.6742 12.786 11.2614 13.1648 10.9659C13.5473 10.6667 13.964 10.4583 14.4148 10.3409C14.8693 10.2197 15.3163 10.1591 15.7557 10.1591C16.036 10.1591 16.358 10.1932 16.7216 10.2614C17.089 10.3258 17.4432 10.4602 17.7841 10.6648C18.1288 10.8693 18.4148 11.178 18.642 11.5909C18.8693 12.0038 18.983 12.5568 18.983 13.25V19H17.642V17.8182H17.5739C17.483 18.0076 17.3314 18.2102 17.1193 18.4261C16.9072 18.642 16.625 18.8258 16.2727 18.9773C15.9205 19.1288 15.4905 19.2045 14.983 19.2045ZM15.1875 18C15.7178 18 16.1648 17.8958 16.5284 17.6875C16.8958 17.4792 17.1723 17.2102 17.358 16.8807C17.5473 16.5511 17.642 16.2045 17.642 15.8409V14.6136C17.5852 14.6818 17.4602 14.7443 17.267 14.8011C17.0777 14.8542 16.858 14.9015 16.608 14.9432C16.3617 14.9811 16.1212 15.0152 15.8864 15.0455C15.6553 15.072 15.4678 15.0947 15.3239 15.1136C14.9754 15.1591 14.6496 15.233 14.3466 15.3352C14.0473 15.4337 13.8049 15.5833 13.6193 15.7841C13.4375 15.9811 13.3466 16.25 13.3466 16.5909C13.3466 17.0568 13.5189 17.4091 13.8636 17.6477C14.2121 17.8826 14.6534 18 15.1875 18ZM22.7713 13.75V19H21.4304V10.2727H22.7259V11.6364H22.8395C23.044 11.1932 23.3546 10.8371 23.7713 10.5682C24.188 10.2955 24.7259 10.1591 25.3849 10.1591C25.9759 10.1591 26.4929 10.2803 26.9361 10.5227C27.3793 10.7614 27.724 11.125 27.9702 11.6136C28.2164 12.0985 28.3395 12.7121 28.3395 13.4545V19H26.9986V13.5455C26.9986 12.8598 26.8205 12.3258 26.4645 11.9432C26.1084 11.5568 25.6198 11.3636 24.9986 11.3636C24.5705 11.3636 24.188 11.4564 23.8509 11.642C23.5175 11.8277 23.2543 12.0985 23.0611 12.4545C22.8679 12.8106 22.7713 13.2424 22.7713 13.75ZM36.2898 15.4318V10.2727H37.6307V19H36.2898V17.5227H36.1989C35.9943 17.9659 35.6761 18.3428 35.2443 18.6534C34.8125 18.9602 34.267 19.1136 33.608 19.1136C33.0625 19.1136 32.5777 18.9943 32.1534 18.7557C31.7292 18.5133 31.3958 18.1496 31.1534 17.6648C30.911 17.1761 30.7898 16.5606 30.7898 15.8182V10.2727H32.1307V15.7273C32.1307 16.3636 32.3087 16.8712 32.6648 17.25C33.0246 17.6288 33.483 17.8182 34.0398 17.8182C34.3731 17.8182 34.7121 17.733 35.0568 17.5625C35.4053 17.392 35.697 17.1307 35.9318 16.7784C36.1705 16.4261 36.2898 15.9773 36.2898 15.4318ZM42.6548 19.2045C42.1018 19.2045 41.5999 19.1004 41.1491 18.892C40.6984 18.6799 40.3404 18.375 40.0753 17.9773C39.8101 17.5758 39.6776 17.0909 39.6776 16.5227C39.6776 16.0227 39.776 15.6174 39.973 15.3068C40.17 14.9924 40.4332 14.7462 40.7628 14.5682C41.0923 14.3902 41.456 14.2576 41.8537 14.1705C42.2552 14.0795 42.6586 14.0076 43.0639 13.9545C43.5942 13.8864 44.0241 13.8352 44.3537 13.8011C44.687 13.7633 44.9295 13.7008 45.081 13.6136C45.2363 13.5265 45.3139 13.375 45.3139 13.1591V13.1136C45.3139 12.553 45.1605 12.1174 44.8537 11.8068C44.5507 11.4962 44.0904 11.3409 43.473 11.3409C42.8329 11.3409 42.331 11.4811 41.9673 11.7614C41.6037 12.0417 41.348 12.3409 41.2003 12.6591L39.9276 12.2045C40.1548 11.6742 40.4579 11.2614 40.8366 10.9659C41.2192 10.6667 41.6359 10.4583 42.0866 10.3409C42.5412 10.2197 42.9882 10.1591 43.4276 10.1591C43.7079 10.1591 44.0298 10.1932 44.3935 10.2614C44.7609 10.3258 45.1151 10.4602 45.456 10.6648C45.8007 10.8693 46.0866 11.178 46.3139 11.5909C46.5412 12.0038 46.6548 12.5568 46.6548 13.25V19H45.3139V17.8182H45.2457C45.1548 18.0076 45.0033 18.2102 44.7912 18.4261C44.5791 18.642 44.2969 18.8258 43.9446 18.9773C43.5923 19.1288 43.1624 19.2045 42.6548 19.2045ZM42.8594 18C43.3897 18 43.8366 17.8958 44.2003 17.6875C44.5677 17.4792 44.8442 17.2102 45.0298 16.8807C45.2192 16.5511 45.3139 16.2045 45.3139 15.8409V14.6136C45.2571 14.6818 45.1321 14.7443 44.9389 14.8011C44.7495 14.8542 44.5298 14.9015 44.2798 14.9432C44.0336 14.9811 43.7931 15.0152 43.5582 15.0455C43.3272 15.072 43.1397 15.0947 42.9957 15.1136C42.6473 15.1591 42.3215 15.233 42.0185 15.3352C41.7192 15.4337 41.4768 15.5833 41.2912 15.7841C41.1094 15.9811 41.0185 16.25 41.0185 16.5909C41.0185 17.0568 41.1908 17.4091 41.5355 17.6477C41.884 17.8826 42.3253 18 42.8594 18ZM49.1023 19V10.2727H50.3977V11.5909H50.4886C50.6477 11.1591 50.9356 10.8087 51.3523 10.5398C51.7689 10.2708 52.2386 10.1364 52.7614 10.1364C52.8598 10.1364 52.983 10.1383 53.1307 10.142C53.2784 10.1458 53.3902 10.1515 53.4659 10.1591V11.5227C53.4205 11.5114 53.3163 11.4943 53.1534 11.4716C52.9943 11.4451 52.8258 11.4318 52.6477 11.4318C52.2235 11.4318 51.8447 11.5208 51.5114 11.6989C51.1818 11.8731 50.9205 12.1155 50.7273 12.4261C50.5379 12.733 50.4432 13.0833 50.4432 13.4773V19H49.1023ZM56.1847 22.2727C55.9574 22.2727 55.7547 22.2538 55.5767 22.2159C55.3987 22.1818 55.2756 22.1477 55.2074 22.1136L55.5483 20.9318C55.8741 21.0152 56.1619 21.0455 56.4119 21.0227C56.6619 21 56.8835 20.8883 57.0767 20.6875C57.2737 20.4905 57.4536 20.1705 57.6165 19.7273L57.8665 19.0455L54.6392 10.2727H56.0938L58.5028 17.2273H58.5938L61.0028 10.2727H62.4574L58.7528 20.2727C58.5862 20.7235 58.3797 21.0966 58.1335 21.392C57.8873 21.6913 57.6013 21.9129 57.2756 22.0568C56.9536 22.2008 56.59 22.2727 56.1847 22.2727ZM24.642 38V36.9773L28.483 32.7727C28.9337 32.2803 29.3049 31.8523 29.5966 31.4886C29.8883 31.1212 30.1042 30.7765 30.2443 30.4545C30.3883 30.1288 30.4602 29.7879 30.4602 29.4318C30.4602 29.0227 30.3617 28.6686 30.1648 28.3693C29.9716 28.0701 29.7064 27.839 29.3693 27.6761C29.0322 27.5133 28.6534 27.4318 28.233 27.4318C27.786 27.4318 27.3958 27.5246 27.0625 27.7102C26.733 27.892 26.4773 28.1477 26.2955 28.4773C26.1174 28.8068 26.0284 29.1932 26.0284 29.6364H24.6875C24.6875 28.9545 24.8447 28.3561 25.1591 27.8409C25.4735 27.3258 25.9015 26.9242 26.4432 26.6364C26.9886 26.3485 27.6004 26.2045 28.2784 26.2045C28.9602 26.2045 29.5644 26.3485 30.0909 26.6364C30.6174 26.9242 31.0303 27.3125 31.3295 27.8011C31.6288 28.2898 31.7784 28.8333 31.7784 29.4318C31.7784 29.8598 31.7008 30.2784 31.5455 30.6875C31.3939 31.0928 31.1288 31.5455 30.75 32.0455C30.375 32.5417 29.8542 33.1477 29.1875 33.8636L26.5739 36.6591V36.75H31.983V38H24.642ZM38.125 38.1591C37.2689 38.1591 36.5398 37.9261 35.9375 37.4602C35.3352 36.9905 34.875 36.3106 34.5568 35.4205C34.2386 34.5265 34.0795 33.447 34.0795 32.1818C34.0795 30.9242 34.2386 29.8504 34.5568 28.9602C34.8788 28.0663 35.3409 27.3845 35.9432 26.9148C36.5492 26.4413 37.2765 26.2045 38.125 26.2045C38.9735 26.2045 39.6989 26.4413 40.3011 26.9148C40.9072 27.3845 41.3693 28.0663 41.6875 28.9602C42.0095 29.8504 42.1705 30.9242 42.1705 32.1818C42.1705 33.447 42.0114 34.5265 41.6932 35.4205C41.375 36.3106 40.9148 36.9905 40.3125 37.4602C39.7102 37.9261 38.9811 38.1591 38.125 38.1591ZM38.125 36.9091C38.9735 36.9091 39.6326 36.5 40.1023 35.6818C40.572 34.8636 40.8068 33.697 40.8068 32.1818C40.8068 31.1742 40.6989 30.3163 40.483 29.608C40.2708 28.8996 39.964 28.3598 39.5625 27.9886C39.1648 27.6174 38.6856 27.4318 38.125 27.4318C37.2841 27.4318 36.6269 27.8466 36.1534 28.6761C35.6799 29.5019 35.4432 30.6705 35.4432 32.1818C35.4432 33.1894 35.5492 34.0455 35.7614 34.75C35.9735 35.4545 36.2784 35.9905 36.6761 36.358C37.0777 36.7254 37.5606 36.9091 38.125 36.9091ZM44.3295 38V36.9773L48.1705 32.7727C48.6212 32.2803 48.9924 31.8523 49.2841 31.4886C49.5758 31.1212 49.7917 30.7765 49.9318 30.4545C50.0758 30.1288 50.1477 29.7879 50.1477 29.4318C50.1477 29.0227 50.0492 28.6686 49.8523 28.3693C49.6591 28.0701 49.3939 27.839 49.0568 27.6761C48.7197 27.5133 48.3409 27.4318 47.9205 27.4318C47.4735 27.4318 47.0833 27.5246 46.75 27.7102C46.4205 27.892 46.1648 28.1477 45.983 28.4773C45.8049 28.8068 45.7159 29.1932 45.7159 29.6364H44.375C44.375 28.9545 44.5322 28.3561 44.8466 27.8409C45.161 27.3258 45.589 26.9242 46.1307 26.6364C46.6761 26.3485 47.2879 26.2045 47.9659 26.2045C48.6477 26.2045 49.2519 26.3485 49.7784 26.6364C50.3049 26.9242 50.7178 27.3125 51.017 27.8011C51.3163 28.2898 51.4659 28.8333 51.4659 29.4318C51.4659 29.8598 51.3883 30.2784 51.233 30.6875C51.0814 31.0928 50.8163 31.5455 50.4375 32.0455C50.0625 32.5417 49.5417 33.1477 48.875 33.8636L46.2614 36.6591V36.75H51.6705V38H44.3295ZM57.9489 38.1591C57.1989 38.1591 56.5303 38.0303 55.9432 37.7727C55.3598 37.5152 54.8958 37.1572 54.5511 36.6989C54.2102 36.2367 54.0246 35.7008 53.9943 35.0909H55.4261C55.4564 35.4659 55.5852 35.7898 55.8125 36.0625C56.0398 36.3314 56.3371 36.5398 56.7045 36.6875C57.072 36.8352 57.4792 36.9091 57.9261 36.9091C58.4261 36.9091 58.8693 36.822 59.2557 36.6477C59.642 36.4735 59.9451 36.2311 60.1648 35.9205C60.3845 35.6098 60.4943 35.25 60.4943 34.8409C60.4943 34.4129 60.3883 34.036 60.1761 33.7102C59.964 33.3807 59.6534 33.1231 59.2443 32.9375C58.8352 32.7519 58.3352 32.6591 57.7443 32.6591H56.8125V31.4091H57.7443C58.2064 31.4091 58.6117 31.3258 58.9602 31.1591C59.3125 30.9924 59.5871 30.7576 59.7841 30.4545C59.9848 30.1515 60.0852 29.7955 60.0852 29.3864C60.0852 28.9924 59.9981 28.6496 59.8239 28.358C59.6496 28.0663 59.4034 27.839 59.0852 27.6761C58.7708 27.5133 58.3996 27.4318 57.9716 27.4318C57.5701 27.4318 57.1913 27.5057 56.8352 27.6534C56.483 27.7973 56.1951 28.0076 55.9716 28.2841C55.7481 28.5568 55.6269 28.8864 55.608 29.2727H54.2443C54.267 28.6629 54.4508 28.1288 54.7955 27.6705C55.1402 27.2083 55.5909 26.8485 56.1477 26.5909C56.7083 26.3333 57.3239 26.2045 57.9943 26.2045C58.714 26.2045 59.3314 26.3504 59.8466 26.642C60.3617 26.9299 60.7576 27.3106 61.0341 27.7841C61.3106 28.2576 61.4489 28.7689 61.4489 29.3182C61.4489 29.9735 61.2765 30.5322 60.9318 30.9943C60.5909 31.4564 60.1269 31.7765 59.5398 31.9545V32.0455C60.2746 32.1667 60.8485 32.4792 61.2614 32.983C61.6742 33.483 61.8807 34.1023 61.8807 34.8409C61.8807 35.4735 61.7083 36.0417 61.3636 36.5455C61.0227 37.0455 60.5568 37.4394 59.9659 37.7273C59.375 38.0152 58.7027 38.1591 57.9489 38.1591Z" fill="white"/>
<path d="M8.1946 160.273C8.12642 159.697 7.84991 159.25 7.36506 158.932C6.88021 158.614 6.28551 158.455 5.58097 158.455C5.06581 158.455 4.61506 158.538 4.22869 158.705C3.84612 158.871 3.54688 159.1 3.33097 159.392C3.11884 159.684 3.01278 160.015 3.01278 160.386C3.01278 160.697 3.08665 160.964 3.23438 161.188C3.38589 161.407 3.57907 161.591 3.81392 161.739C4.04877 161.883 4.29498 162.002 4.55256 162.097C4.81013 162.187 5.04688 162.261 5.26278 162.318L6.4446 162.636C6.74763 162.716 7.08475 162.826 7.45597 162.966C7.83097 163.106 8.18892 163.297 8.52983 163.54C8.87453 163.778 9.15862 164.085 9.3821 164.46C9.60559 164.835 9.71733 165.295 9.71733 165.841C9.71733 166.47 9.55256 167.038 9.22301 167.545C8.89725 168.053 8.41998 168.456 7.79119 168.756C7.16619 169.055 6.40672 169.205 5.51278 169.205C4.67945 169.205 3.95786 169.07 3.34801 168.801C2.74195 168.532 2.26468 168.157 1.91619 167.676C1.5715 167.195 1.37642 166.636 1.33097 166H2.78551C2.82339 166.439 2.97112 166.803 3.22869 167.091C3.49006 167.375 3.8196 167.587 4.21733 167.727C4.61884 167.864 5.05066 167.932 5.51278 167.932C6.05066 167.932 6.53362 167.845 6.96165 167.67C7.38968 167.492 7.72869 167.246 7.97869 166.932C8.22869 166.614 8.35369 166.242 8.35369 165.818C8.35369 165.432 8.24574 165.117 8.02983 164.875C7.81392 164.633 7.52983 164.436 7.17756 164.284C6.82528 164.133 6.4446 164 6.03551 163.886L4.60369 163.477C3.6946 163.216 2.97491 162.843 2.4446 162.358C1.9143 161.873 1.64915 161.239 1.64915 160.455C1.64915 159.803 1.82528 159.235 2.17756 158.75C2.53362 158.261 3.01089 157.883 3.60938 157.614C4.21165 157.341 4.884 157.205 5.62642 157.205C6.37642 157.205 7.04309 157.339 7.62642 157.608C8.20975 157.873 8.67188 158.237 9.01278 158.699C9.35748 159.161 9.5393 159.686 9.55824 160.273H8.1946ZM17.3523 165.432V160.273H18.6932V169H17.3523V167.523H17.2614C17.0568 167.966 16.7386 168.343 16.3068 168.653C15.875 168.96 15.3295 169.114 14.6705 169.114C14.125 169.114 13.6402 168.994 13.2159 168.756C12.7917 168.513 12.4583 168.15 12.2159 167.665C11.9735 167.176 11.8523 166.561 11.8523 165.818V160.273H13.1932V165.727C13.1932 166.364 13.3712 166.871 13.7273 167.25C14.0871 167.629 14.5455 167.818 15.1023 167.818C15.4356 167.818 15.7746 167.733 16.1193 167.562C16.4678 167.392 16.7595 167.131 16.9943 166.778C17.233 166.426 17.3523 165.977 17.3523 165.432ZM21.1491 169V160.273H22.4446V161.636H22.5582C22.7401 161.17 23.0336 160.809 23.4389 160.551C23.8442 160.29 24.331 160.159 24.8991 160.159C25.4749 160.159 25.9541 160.29 26.3366 160.551C26.723 160.809 27.0241 161.17 27.2401 161.636H27.331C27.5545 161.186 27.8897 160.828 28.3366 160.562C28.7836 160.294 29.3196 160.159 29.9446 160.159C30.7249 160.159 31.3632 160.403 31.8594 160.892C32.3556 161.377 32.6037 162.133 32.6037 163.159V169H31.2628V163.159C31.2628 162.515 31.0866 162.055 30.7344 161.778C30.3821 161.502 29.9673 161.364 29.4901 161.364C28.8764 161.364 28.401 161.549 28.0639 161.92C27.7268 162.288 27.5582 162.754 27.5582 163.318V169H26.1946V163.023C26.1946 162.527 26.0336 162.127 25.7116 161.824C25.3897 161.517 24.9749 161.364 24.4673 161.364C24.1188 161.364 23.7931 161.456 23.4901 161.642C23.1908 161.828 22.9484 162.085 22.7628 162.415C22.581 162.741 22.4901 163.117 22.4901 163.545V169H21.1491ZM35.0554 169V160.273H36.3509V161.636H36.4645C36.6463 161.17 36.9399 160.809 37.3452 160.551C37.7505 160.29 38.2372 160.159 38.8054 160.159C39.3812 160.159 39.8603 160.29 40.2429 160.551C40.6293 160.809 40.9304 161.17 41.1463 161.636H41.2372C41.4607 161.186 41.7959 160.828 42.2429 160.562C42.6899 160.294 43.2259 160.159 43.8509 160.159C44.6312 160.159 45.2694 160.403 45.7656 160.892C46.2618 161.377 46.5099 162.133 46.5099 163.159V169H45.169V163.159C45.169 162.515 44.9929 162.055 44.6406 161.778C44.2884 161.502 43.8736 161.364 43.3963 161.364C42.7827 161.364 42.3073 161.549 41.9702 161.92C41.633 162.288 41.4645 162.754 41.4645 163.318V169H40.1009V163.023C40.1009 162.527 39.9399 162.127 39.6179 161.824C39.2959 161.517 38.8812 161.364 38.3736 161.364C38.0251 161.364 37.6993 161.456 37.3963 161.642C37.0971 161.828 36.8546 162.085 36.669 162.415C36.4872 162.741 36.3963 163.117 36.3963 163.545V169H35.0554ZM52.6207 169.182C51.7798 169.182 51.0545 168.996 50.4446 168.625C49.8385 168.25 49.3707 167.727 49.0412 167.057C48.7154 166.383 48.5526 165.598 48.5526 164.705C48.5526 163.811 48.7154 163.023 49.0412 162.341C49.3707 161.655 49.8291 161.121 50.4162 160.739C51.0071 160.352 51.6965 160.159 52.4844 160.159C52.9389 160.159 53.3878 160.235 53.831 160.386C54.2741 160.538 54.6776 160.784 55.0412 161.125C55.4048 161.462 55.6946 161.909 55.9105 162.466C56.1264 163.023 56.2344 163.708 56.2344 164.523V165.091H49.5071V163.932H54.8707C54.8707 163.439 54.7723 163 54.5753 162.614C54.3821 162.227 54.1056 161.922 53.7457 161.699C53.3897 161.475 52.9692 161.364 52.4844 161.364C51.9503 161.364 51.4882 161.496 51.098 161.761C50.7116 162.023 50.4143 162.364 50.206 162.784C49.9976 163.205 49.8935 163.655 49.8935 164.136V164.909C49.8935 165.568 50.0071 166.127 50.2344 166.585C50.4654 167.04 50.7855 167.386 51.1946 167.625C51.6037 167.86 52.0791 167.977 52.6207 167.977C52.973 167.977 53.2912 167.928 53.5753 167.83C53.8632 167.727 54.1113 167.576 54.3196 167.375C54.5279 167.17 54.6889 166.917 54.8026 166.614L56.098 166.977C55.9616 167.417 55.7325 167.803 55.4105 168.136C55.0885 168.466 54.6908 168.723 54.2173 168.909C53.7438 169.091 53.2116 169.182 52.6207 169.182ZM58.2741 169V160.273H59.5696V161.591H59.6605C59.8196 161.159 60.1075 160.809 60.5241 160.54C60.9408 160.271 61.4105 160.136 61.9332 160.136C62.0317 160.136 62.1548 160.138 62.3026 160.142C62.4503 160.146 62.562 160.152 62.6378 160.159V161.523C62.5923 161.511 62.4882 161.494 62.3253 161.472C62.1662 161.445 61.9976 161.432 61.8196 161.432C61.3954 161.432 61.0166 161.521 60.6832 161.699C60.3537 161.873 60.0923 162.116 59.8991 162.426C59.7098 162.733 59.6151 163.083 59.6151 163.477V169H58.2741ZM24.642 188V186.977L28.483 182.773C28.9337 182.28 29.3049 181.852 29.5966 181.489C29.8883 181.121 30.1042 180.777 30.2443 180.455C30.3883 180.129 30.4602 179.788 30.4602 179.432C30.4602 179.023 30.3617 178.669 30.1648 178.369C29.9716 178.07 29.7064 177.839 29.3693 177.676C29.0322 177.513 28.6534 177.432 28.233 177.432C27.786 177.432 27.3958 177.525 27.0625 177.71C26.733 177.892 26.4773 178.148 26.2955 178.477C26.1174 178.807 26.0284 179.193 26.0284 179.636H24.6875C24.6875 178.955 24.8447 178.356 25.1591 177.841C25.4735 177.326 25.9015 176.924 26.4432 176.636C26.9886 176.348 27.6004 176.205 28.2784 176.205C28.9602 176.205 29.5644 176.348 30.0909 176.636C30.6174 176.924 31.0303 177.312 31.3295 177.801C31.6288 178.29 31.7784 178.833 31.7784 179.432C31.7784 179.86 31.7008 180.278 31.5455 180.688C31.3939 181.093 31.1288 181.545 30.75 182.045C30.375 182.542 29.8542 183.148 29.1875 183.864L26.5739 186.659V186.75H31.983V188H24.642ZM38.125 188.159C37.2689 188.159 36.5398 187.926 35.9375 187.46C35.3352 186.991 34.875 186.311 34.5568 185.42C34.2386 184.527 34.0795 183.447 34.0795 182.182C34.0795 180.924 34.2386 179.85 34.5568 178.96C34.8788 178.066 35.3409 177.384 35.9432 176.915C36.5492 176.441 37.2765 176.205 38.125 176.205C38.9735 176.205 39.6989 176.441 40.3011 176.915C40.9072 177.384 41.3693 178.066 41.6875 178.96C42.0095 179.85 42.1705 180.924 42.1705 182.182C42.1705 183.447 42.0114 184.527 41.6932 185.42C41.375 186.311 40.9148 186.991 40.3125 187.46C39.7102 187.926 38.9811 188.159 38.125 188.159ZM38.125 186.909C38.9735 186.909 39.6326 186.5 40.1023 185.682C40.572 184.864 40.8068 183.697 40.8068 182.182C40.8068 181.174 40.6989 180.316 40.483 179.608C40.2708 178.9 39.964 178.36 39.5625 177.989C39.1648 177.617 38.6856 177.432 38.125 177.432C37.2841 177.432 36.6269 177.847 36.1534 178.676C35.6799 179.502 35.4432 180.67 35.4432 182.182C35.4432 183.189 35.5492 184.045 35.7614 184.75C35.9735 185.455 36.2784 185.991 36.6761 186.358C37.0777 186.725 37.5606 186.909 38.125 186.909ZM44.3295 188V186.977L48.1705 182.773C48.6212 182.28 48.9924 181.852 49.2841 181.489C49.5758 181.121 49.7917 180.777 49.9318 180.455C50.0758 180.129 50.1477 179.788 50.1477 179.432C50.1477 179.023 50.0492 178.669 49.8523 178.369C49.6591 178.07 49.3939 177.839 49.0568 177.676C48.7197 177.513 48.3409 177.432 47.9205 177.432C47.4735 177.432 47.0833 177.525 46.75 177.71C46.4205 177.892 46.1648 178.148 45.983 178.477C45.8049 178.807 45.7159 179.193 45.7159 179.636H44.375C44.375 178.955 44.5322 178.356 44.8466 177.841C45.161 177.326 45.589 176.924 46.1307 176.636C46.6761 176.348 47.2879 176.205 47.9659 176.205C48.6477 176.205 49.2519 176.348 49.7784 176.636C50.3049 176.924 50.7178 177.312 51.017 177.801C51.3163 178.29 51.4659 178.833 51.4659 179.432C51.4659 179.86 51.3883 180.278 51.233 180.688C51.0814 181.093 50.8163 181.545 50.4375 182.045C50.0625 182.542 49.5417 183.148 48.875 183.864L46.2614 186.659V186.75H51.6705V188H44.3295ZM57.9489 188.159C57.1989 188.159 56.5303 188.03 55.9432 187.773C55.3598 187.515 54.8958 187.157 54.5511 186.699C54.2102 186.237 54.0246 185.701 53.9943 185.091H55.4261C55.4564 185.466 55.5852 185.79 55.8125 186.062C56.0398 186.331 56.3371 186.54 56.7045 186.688C57.072 186.835 57.4792 186.909 57.9261 186.909C58.4261 186.909 58.8693 186.822 59.2557 186.648C59.642 186.473 59.9451 186.231 60.1648 185.92C60.3845 185.61 60.4943 185.25 60.4943 184.841C60.4943 184.413 60.3883 184.036 60.1761 183.71C59.964 183.381 59.6534 183.123 59.2443 182.938C58.8352 182.752 58.3352 182.659 57.7443 182.659H56.8125V181.409H57.7443C58.2064 181.409 58.6117 181.326 58.9602 181.159C59.3125 180.992 59.5871 180.758 59.7841 180.455C59.9848 180.152 60.0852 179.795 60.0852 179.386C60.0852 178.992 59.9981 178.65 59.8239 178.358C59.6496 178.066 59.4034 177.839 59.0852 177.676C58.7708 177.513 58.3996 177.432 57.9716 177.432C57.5701 177.432 57.1913 177.506 56.8352 177.653C56.483 177.797 56.1951 178.008 55.9716 178.284C55.7481 178.557 55.6269 178.886 55.608 179.273H54.2443C54.267 178.663 54.4508 178.129 54.7955 177.67C55.1402 177.208 55.5909 176.848 56.1477 176.591C56.7083 176.333 57.3239 176.205 57.9943 176.205C58.714 176.205 59.3314 176.35 59.8466 176.642C60.3617 176.93 60.7576 177.311 61.0341 177.784C61.3106 178.258 61.4489 178.769 61.4489 179.318C61.4489 179.973 61.2765 180.532 60.9318 180.994C60.5909 181.456 60.1269 181.777 59.5398 181.955V182.045C60.2746 182.167 60.8485 182.479 61.2614 182.983C61.6742 183.483 61.8807 184.102 61.8807 184.841C61.8807 185.473 61.7083 186.042 61.3636 186.545C61.0227 187.045 60.5568 187.439 59.9659 187.727C59.375 188.015 58.7027 188.159 57.9489 188.159Z" fill="white"/>
<circle cx="94.5" cy="172.5" r="20" fill="#0094FF" stroke="black" stroke-width="5"/>
<path d="M128.114 181V163.545H130.227V179.125H138.341V181H128.114ZM145.193 181.307C144.364 181.307 143.611 181.151 142.935 180.838C142.259 180.52 141.722 180.062 141.324 179.466C140.926 178.864 140.727 178.136 140.727 177.284C140.727 176.534 140.875 175.926 141.17 175.46C141.466 174.989 141.861 174.619 142.355 174.352C142.849 174.085 143.395 173.886 143.991 173.756C144.594 173.619 145.199 173.511 145.807 173.432C146.602 173.33 147.247 173.253 147.741 173.202C148.241 173.145 148.605 173.051 148.832 172.92C149.065 172.79 149.182 172.562 149.182 172.239V172.17C149.182 171.33 148.952 170.676 148.491 170.21C148.037 169.744 147.347 169.511 146.42 169.511C145.46 169.511 144.707 169.722 144.162 170.142C143.616 170.562 143.233 171.011 143.011 171.489L141.102 170.807C141.443 170.011 141.898 169.392 142.466 168.949C143.04 168.5 143.665 168.187 144.341 168.011C145.023 167.83 145.693 167.739 146.352 167.739C146.773 167.739 147.256 167.79 147.801 167.892C148.352 167.989 148.884 168.19 149.395 168.497C149.912 168.804 150.341 169.267 150.682 169.886C151.023 170.506 151.193 171.335 151.193 172.375V181H149.182V179.227H149.08C148.943 179.511 148.716 179.815 148.398 180.139C148.08 180.463 147.656 180.739 147.128 180.966C146.599 181.193 145.955 181.307 145.193 181.307ZM145.5 179.5C146.295 179.5 146.966 179.344 147.511 179.031C148.063 178.719 148.477 178.315 148.756 177.821C149.04 177.327 149.182 176.807 149.182 176.261V174.42C149.097 174.523 148.909 174.616 148.619 174.702C148.335 174.781 148.006 174.852 147.631 174.915C147.261 174.972 146.901 175.023 146.548 175.068C146.202 175.108 145.92 175.142 145.705 175.17C145.182 175.239 144.693 175.349 144.239 175.503C143.79 175.651 143.426 175.875 143.148 176.176C142.875 176.472 142.739 176.875 142.739 177.386C142.739 178.085 142.997 178.614 143.514 178.972C144.037 179.324 144.699 179.5 145.5 179.5ZM163.114 175.648V167.909H165.126V181H163.114V178.784H162.978C162.671 179.449 162.194 180.014 161.546 180.48C160.898 180.94 160.08 181.17 159.092 181.17C158.273 181.17 157.546 180.991 156.91 180.634C156.273 180.27 155.773 179.724 155.41 178.997C155.046 178.264 154.864 177.341 154.864 176.227V167.909H156.876V176.091C156.876 177.045 157.143 177.807 157.677 178.375C158.217 178.943 158.904 179.227 159.739 179.227C160.239 179.227 160.748 179.099 161.265 178.844C161.788 178.588 162.225 178.196 162.577 177.668C162.935 177.139 163.114 176.466 163.114 175.648ZM170.821 173.125V181H168.81V167.909H170.753V169.955H170.923C171.23 169.29 171.696 168.756 172.321 168.352C172.946 167.943 173.753 167.739 174.741 167.739C175.628 167.739 176.403 167.92 177.068 168.284C177.733 168.642 178.25 169.188 178.619 169.92C178.989 170.648 179.173 171.568 179.173 172.682V181H177.162V172.818C177.162 171.79 176.895 170.989 176.361 170.415C175.827 169.835 175.094 169.545 174.162 169.545C173.52 169.545 172.946 169.685 172.44 169.963C171.94 170.241 171.545 170.648 171.256 171.182C170.966 171.716 170.821 172.364 170.821 173.125ZM188.167 181.273C186.94 181.273 185.883 180.983 184.996 180.403C184.11 179.824 183.428 179.026 182.951 178.009C182.474 176.991 182.235 175.83 182.235 174.523C182.235 173.193 182.479 172.02 182.968 171.003C183.462 169.98 184.15 169.182 185.031 168.608C185.917 168.028 186.951 167.739 188.133 167.739C189.053 167.739 189.883 167.909 190.621 168.25C191.36 168.591 191.965 169.068 192.437 169.682C192.908 170.295 193.201 171.011 193.315 171.83H191.303C191.15 171.233 190.809 170.705 190.281 170.244C189.758 169.778 189.053 169.545 188.167 169.545C187.383 169.545 186.695 169.75 186.104 170.159C185.519 170.562 185.062 171.134 184.732 171.872C184.408 172.605 184.246 173.466 184.246 174.455C184.246 175.466 184.406 176.347 184.724 177.097C185.048 177.847 185.502 178.429 186.087 178.844C186.678 179.259 187.371 179.466 188.167 179.466C188.69 179.466 189.164 179.375 189.59 179.193C190.016 179.011 190.377 178.75 190.673 178.409C190.968 178.068 191.178 177.659 191.303 177.182H193.315C193.201 177.955 192.92 178.651 192.471 179.27C192.028 179.884 191.44 180.372 190.707 180.736C189.979 181.094 189.133 181.273 188.167 181.273ZM198.266 173.125V181H196.255V163.545H198.266V169.955H198.437C198.744 169.278 199.204 168.741 199.817 168.344C200.437 167.94 201.261 167.739 202.289 167.739C203.181 167.739 203.962 167.918 204.633 168.276C205.303 168.628 205.823 169.17 206.192 169.903C206.567 170.631 206.755 171.557 206.755 172.682V181H204.744V172.818C204.744 171.778 204.474 170.974 203.934 170.406C203.4 169.832 202.658 169.545 201.71 169.545C201.05 169.545 200.46 169.685 199.937 169.963C199.42 170.241 199.011 170.648 198.71 171.182C198.414 171.716 198.266 172.364 198.266 173.125ZM217.185 181V167.909H219.196V181H217.185ZM218.207 165.727C217.815 165.727 217.477 165.594 217.193 165.327C216.915 165.06 216.776 164.739 216.776 164.364C216.776 163.989 216.915 163.668 217.193 163.401C217.477 163.134 217.815 163 218.207 163C218.599 163 218.935 163.134 219.213 163.401C219.497 163.668 219.639 163.989 219.639 164.364C219.639 164.739 219.497 165.06 219.213 165.327C218.935 165.594 218.599 165.727 218.207 165.727ZM224.891 173.125V181H222.88V167.909H224.823V169.955H224.994C225.3 169.29 225.766 168.756 226.391 168.352C227.016 167.943 227.823 167.739 228.812 167.739C229.698 167.739 230.474 167.92 231.138 168.284C231.803 168.642 232.32 169.188 232.69 169.92C233.059 170.648 233.244 171.568 233.244 172.682V181H231.232V172.818C231.232 171.79 230.965 170.989 230.431 170.415C229.897 169.835 229.164 169.545 228.232 169.545C227.59 169.545 227.016 169.685 226.511 169.963C226.011 170.241 225.616 170.648 225.326 171.182C225.036 171.716 224.891 172.364 224.891 173.125ZM255.874 169C255.686 168.426 255.439 167.912 255.132 167.457C254.831 166.997 254.47 166.605 254.05 166.281C253.635 165.957 253.163 165.71 252.635 165.54C252.107 165.369 251.527 165.284 250.896 165.284C249.862 165.284 248.922 165.551 248.075 166.085C247.229 166.619 246.555 167.406 246.055 168.446C245.555 169.486 245.305 170.761 245.305 172.273C245.305 173.784 245.558 175.06 246.064 176.099C246.57 177.139 247.254 177.926 248.118 178.46C248.982 178.994 249.953 179.261 251.033 179.261C252.033 179.261 252.913 179.048 253.675 178.622C254.442 178.19 255.038 177.582 255.464 176.798C255.896 176.009 256.112 175.08 256.112 174.011L256.76 174.148H251.51V172.273H258.158V174.148C258.158 175.585 257.851 176.835 257.237 177.898C256.629 178.96 255.788 179.784 254.714 180.369C253.646 180.949 252.419 181.239 251.033 181.239C249.487 181.239 248.129 180.875 246.959 180.148C245.794 179.42 244.885 178.386 244.232 177.045C243.584 175.705 243.26 174.114 243.26 172.273C243.26 170.892 243.445 169.651 243.814 168.548C244.189 167.44 244.717 166.497 245.399 165.719C246.081 164.94 246.888 164.344 247.82 163.929C248.751 163.514 249.777 163.307 250.896 163.307C251.817 163.307 252.675 163.446 253.47 163.724C254.271 163.997 254.984 164.386 255.609 164.892C256.24 165.392 256.766 165.991 257.186 166.69C257.607 167.384 257.896 168.153 258.055 169H255.874ZM261.505 181V167.909H263.448V169.886H263.585C263.823 169.239 264.255 168.713 264.88 168.31C265.505 167.906 266.21 167.705 266.994 167.705C267.141 167.705 267.326 167.707 267.548 167.713C267.769 167.719 267.937 167.727 268.05 167.739V169.784C267.982 169.767 267.826 169.741 267.582 169.707C267.343 169.668 267.09 169.648 266.823 169.648C266.187 169.648 265.619 169.781 265.119 170.048C264.624 170.31 264.232 170.673 263.942 171.139C263.658 171.599 263.516 172.125 263.516 172.716V181H261.505ZM275.525 181.273C274.263 181.273 273.175 180.994 272.261 180.438C271.352 179.875 270.65 179.091 270.156 178.085C269.667 177.074 269.423 175.898 269.423 174.557C269.423 173.216 269.667 172.034 270.156 171.011C270.65 169.983 271.337 169.182 272.218 168.608C273.104 168.028 274.138 167.739 275.32 167.739C276.002 167.739 276.675 167.852 277.34 168.08C278.005 168.307 278.61 168.676 279.156 169.188C279.701 169.693 280.136 170.364 280.46 171.199C280.783 172.034 280.945 173.062 280.945 174.284V175.136H270.854V173.398H278.9C278.9 172.659 278.752 172 278.457 171.42C278.167 170.841 277.752 170.384 277.212 170.048C276.678 169.713 276.048 169.545 275.32 169.545C274.519 169.545 273.826 169.744 273.241 170.142C272.661 170.534 272.215 171.045 271.903 171.676C271.59 172.307 271.434 172.983 271.434 173.705V174.864C271.434 175.852 271.604 176.69 271.945 177.378C272.292 178.06 272.772 178.58 273.386 178.938C273.999 179.29 274.712 179.466 275.525 179.466C276.053 179.466 276.531 179.392 276.957 179.244C277.388 179.091 277.761 178.864 278.073 178.562C278.386 178.256 278.627 177.875 278.798 177.42L280.741 177.966C280.536 178.625 280.192 179.205 279.71 179.705C279.227 180.199 278.63 180.585 277.92 180.864C277.21 181.136 276.411 181.273 275.525 181.273ZM287.857 181.307C287.028 181.307 286.275 181.151 285.599 180.838C284.923 180.52 284.386 180.062 283.988 179.466C283.59 178.864 283.391 178.136 283.391 177.284C283.391 176.534 283.539 175.926 283.835 175.46C284.13 174.989 284.525 174.619 285.019 174.352C285.513 174.085 286.059 173.886 286.656 173.756C287.258 173.619 287.863 173.511 288.471 173.432C289.266 173.33 289.911 173.253 290.406 173.202C290.906 173.145 291.269 173.051 291.496 172.92C291.729 172.79 291.846 172.562 291.846 172.239V172.17C291.846 171.33 291.616 170.676 291.156 170.21C290.701 169.744 290.011 169.511 289.085 169.511C288.124 169.511 287.371 169.722 286.826 170.142C286.281 170.562 285.897 171.011 285.675 171.489L283.766 170.807C284.107 170.011 284.562 169.392 285.13 168.949C285.704 168.5 286.329 168.187 287.005 168.011C287.687 167.83 288.357 167.739 289.016 167.739C289.437 167.739 289.92 167.79 290.465 167.892C291.016 167.989 291.548 168.19 292.059 168.497C292.576 168.804 293.005 169.267 293.346 169.886C293.687 170.506 293.857 171.335 293.857 172.375V181H291.846V179.227H291.744C291.607 179.511 291.38 179.815 291.062 180.139C290.744 180.463 290.32 180.739 289.792 180.966C289.263 181.193 288.619 181.307 287.857 181.307ZM288.164 179.5C288.96 179.5 289.63 179.344 290.175 179.031C290.727 178.719 291.141 178.315 291.42 177.821C291.704 177.327 291.846 176.807 291.846 176.261V174.42C291.761 174.523 291.573 174.616 291.283 174.702C290.999 174.781 290.67 174.852 290.295 174.915C289.925 174.972 289.565 175.023 289.212 175.068C288.866 175.108 288.585 175.142 288.369 175.17C287.846 175.239 287.357 175.349 286.903 175.503C286.454 175.651 286.09 175.875 285.812 176.176C285.539 176.472 285.403 176.875 285.403 177.386C285.403 178.085 285.661 178.614 286.178 178.972C286.701 179.324 287.363 179.5 288.164 179.5ZM303.222 167.909V169.614H296.438V167.909H303.222ZM298.415 164.773H300.426V177.25C300.426 177.818 300.509 178.244 300.673 178.528C300.844 178.807 301.06 178.994 301.321 179.091C301.588 179.182 301.869 179.227 302.165 179.227C302.386 179.227 302.568 179.216 302.71 179.193C302.852 179.165 302.966 179.142 303.051 179.125L303.46 180.932C303.324 180.983 303.134 181.034 302.889 181.085C302.645 181.142 302.335 181.17 301.96 181.17C301.392 181.17 300.835 181.048 300.29 180.804C299.75 180.56 299.301 180.188 298.943 179.688C298.591 179.188 298.415 178.557 298.415 177.795V164.773ZM311.595 181.273C310.334 181.273 309.246 180.994 308.331 180.438C307.422 179.875 306.72 179.091 306.226 178.085C305.737 177.074 305.493 175.898 305.493 174.557C305.493 173.216 305.737 172.034 306.226 171.011C306.72 169.983 307.408 169.182 308.288 168.608C309.175 168.028 310.209 167.739 311.391 167.739C312.072 167.739 312.746 167.852 313.411 168.08C314.075 168.307 314.68 168.676 315.226 169.188C315.771 169.693 316.206 170.364 316.53 171.199C316.854 172.034 317.016 173.062 317.016 174.284V175.136H306.925V173.398H314.97C314.97 172.659 314.822 172 314.527 171.42C314.237 170.841 313.822 170.384 313.283 170.048C312.749 169.713 312.118 169.545 311.391 169.545C310.589 169.545 309.896 169.744 309.311 170.142C308.732 170.534 308.286 171.045 307.973 171.676C307.661 172.307 307.504 172.983 307.504 173.705V174.864C307.504 175.852 307.675 176.69 308.016 177.378C308.362 178.06 308.842 178.58 309.456 178.938C310.07 179.29 310.783 179.466 311.595 179.466C312.124 179.466 312.601 179.392 313.027 179.244C313.459 179.091 313.831 178.864 314.143 178.562C314.456 178.256 314.697 177.875 314.868 177.42L316.811 177.966C316.607 178.625 316.263 179.205 315.78 179.705C315.297 180.199 314.7 180.585 313.99 180.864C313.28 181.136 312.482 181.273 311.595 181.273ZM320.075 181V167.909H322.018V169.886H322.155C322.393 169.239 322.825 168.713 323.45 168.31C324.075 167.906 324.78 167.705 325.564 167.705C325.712 167.705 325.896 167.707 326.118 167.713C326.339 167.719 326.507 167.727 326.621 167.739V169.784C326.553 169.767 326.396 169.741 326.152 169.707C325.913 169.668 325.661 169.648 325.393 169.648C324.757 169.648 324.189 169.781 323.689 170.048C323.195 170.31 322.803 170.673 322.513 171.139C322.229 171.599 322.087 172.125 322.087 172.716V181H320.075ZM335.073 165.42V163.545H348.164V165.42H342.675V181H340.562V165.42H335.073ZM354.573 181.273C353.391 181.273 352.354 180.991 351.462 180.429C350.576 179.866 349.883 179.08 349.383 178.068C348.888 177.057 348.641 175.875 348.641 174.523C348.641 173.159 348.888 171.969 349.383 170.952C349.883 169.935 350.576 169.145 351.462 168.582C352.354 168.02 353.391 167.739 354.573 167.739C355.755 167.739 356.789 168.02 357.675 168.582C358.567 169.145 359.261 169.935 359.755 170.952C360.255 171.969 360.505 173.159 360.505 174.523C360.505 175.875 360.255 177.057 359.755 178.068C359.261 179.08 358.567 179.866 357.675 180.429C356.789 180.991 355.755 181.273 354.573 181.273ZM354.573 179.466C355.471 179.466 356.21 179.236 356.789 178.776C357.369 178.315 357.798 177.71 358.076 176.96C358.354 176.21 358.494 175.398 358.494 174.523C358.494 173.648 358.354 172.832 358.076 172.077C357.798 171.321 357.369 170.71 356.789 170.244C356.21 169.778 355.471 169.545 354.573 169.545C353.675 169.545 352.937 169.778 352.357 170.244C351.778 170.71 351.349 171.321 351.07 172.077C350.792 172.832 350.653 173.648 350.653 174.523C350.653 175.398 350.792 176.21 351.07 176.96C351.349 177.71 351.778 178.315 352.357 178.776C352.937 179.236 353.675 179.466 354.573 179.466ZM363.575 181V167.909H365.518V169.886H365.655C365.893 169.239 366.325 168.713 366.95 168.31C367.575 167.906 368.28 167.705 369.064 167.705C369.212 167.705 369.396 167.707 369.618 167.713C369.839 167.719 370.007 167.727 370.121 167.739V169.784C370.053 169.767 369.896 169.741 369.652 169.707C369.413 169.668 369.161 169.648 368.893 169.648C368.257 169.648 367.689 169.781 367.189 170.048C366.695 170.31 366.303 170.673 366.013 171.139C365.729 171.599 365.587 172.125 365.587 172.716V181H363.575ZM377.425 181.273C376.243 181.273 375.206 180.991 374.314 180.429C373.428 179.866 372.734 179.08 372.234 178.068C371.74 177.057 371.493 175.875 371.493 174.523C371.493 173.159 371.74 171.969 372.234 170.952C372.734 169.935 373.428 169.145 374.314 168.582C375.206 168.02 376.243 167.739 377.425 167.739C378.607 167.739 379.641 168.02 380.527 168.582C381.419 169.145 382.112 169.935 382.607 170.952C383.107 171.969 383.357 173.159 383.357 174.523C383.357 175.875 383.107 177.057 382.607 178.068C382.112 179.08 381.419 179.866 380.527 180.429C379.641 180.991 378.607 181.273 377.425 181.273ZM377.425 179.466C378.322 179.466 379.061 179.236 379.641 178.776C380.22 178.315 380.649 177.71 380.928 176.96C381.206 176.21 381.345 175.398 381.345 174.523C381.345 173.648 381.206 172.832 380.928 172.077C380.649 171.321 380.22 170.71 379.641 170.244C379.061 169.778 378.322 169.545 377.425 169.545C376.527 169.545 375.788 169.778 375.209 170.244C374.629 170.71 374.2 171.321 373.922 172.077C373.643 172.832 373.504 173.648 373.504 174.523C373.504 175.398 373.643 176.21 373.922 176.96C374.2 177.71 374.629 178.315 375.209 178.776C375.788 179.236 376.527 179.466 377.425 179.466ZM388.438 173.125V181H386.427V167.909H388.37V169.955H388.54C388.847 169.29 389.313 168.756 389.938 168.352C390.563 167.943 391.37 167.739 392.359 167.739C393.245 167.739 394.021 167.92 394.685 168.284C395.35 168.642 395.867 169.188 396.237 169.92C396.606 170.648 396.79 171.568 396.79 172.682V181H394.779V172.818C394.779 171.79 394.512 170.989 393.978 170.415C393.444 169.835 392.711 169.545 391.779 169.545C391.137 169.545 390.563 169.685 390.058 169.963C389.558 170.241 389.163 170.648 388.873 171.182C388.583 171.716 388.438 172.364 388.438 173.125ZM406.159 167.909V169.614H399.375V167.909H406.159ZM401.352 164.773H403.364V177.25C403.364 177.818 403.446 178.244 403.611 178.528C403.781 178.807 403.997 178.994 404.259 179.091C404.526 179.182 404.807 179.227 405.102 179.227C405.324 179.227 405.506 179.216 405.648 179.193C405.79 179.165 405.903 179.142 405.989 179.125L406.398 180.932C406.261 180.983 406.071 181.034 405.827 181.085C405.582 181.142 405.273 181.17 404.898 181.17C404.33 181.17 403.773 181.048 403.227 180.804C402.688 180.56 402.239 180.188 401.881 179.688C401.528 179.188 401.352 178.557 401.352 177.795V164.773ZM414.362 181.273C413.18 181.273 412.143 180.991 411.251 180.429C410.365 179.866 409.672 179.08 409.172 178.068C408.678 177.057 408.43 175.875 408.43 174.523C408.43 173.159 408.678 171.969 409.172 170.952C409.672 169.935 410.365 169.145 411.251 168.582C412.143 168.02 413.18 167.739 414.362 167.739C415.544 167.739 416.578 168.02 417.464 168.582C418.357 169.145 419.05 169.935 419.544 170.952C420.044 171.969 420.294 173.159 420.294 174.523C420.294 175.875 420.044 177.057 419.544 178.068C419.05 179.08 418.357 179.866 417.464 180.429C416.578 180.991 415.544 181.273 414.362 181.273ZM414.362 179.466C415.26 179.466 415.999 179.236 416.578 178.776C417.158 178.315 417.587 177.71 417.865 176.96C418.143 176.21 418.283 175.398 418.283 174.523C418.283 173.648 418.143 172.832 417.865 172.077C417.587 171.321 417.158 170.71 416.578 170.244C415.999 169.778 415.26 169.545 414.362 169.545C413.464 169.545 412.726 169.778 412.146 170.244C411.567 170.71 411.138 171.321 410.859 172.077C410.581 172.832 410.442 173.648 410.442 174.523C410.442 175.398 410.581 176.21 410.859 176.96C411.138 177.71 411.567 178.315 412.146 178.776C412.726 179.236 413.464 179.466 414.362 179.466ZM431.103 181H428.887L435.296 163.545H437.478L443.887 181H441.671L436.455 166.307H436.319L431.103 181ZM431.921 174.182H440.853V176.057H431.921V174.182ZM446.333 181V167.909H448.276V169.886H448.413C448.651 169.239 449.083 168.713 449.708 168.31C450.333 167.906 451.038 167.705 451.822 167.705C451.969 167.705 452.154 167.707 452.376 167.713C452.597 167.719 452.765 167.727 452.879 167.739V169.784C452.81 169.767 452.654 169.741 452.41 169.707C452.171 169.668 451.918 169.648 451.651 169.648C451.015 169.648 450.447 169.781 449.947 170.048C449.452 170.31 449.06 170.673 448.771 171.139C448.487 171.599 448.344 172.125 448.344 172.716V181H446.333ZM460.353 181.273C459.092 181.273 458.004 180.994 457.089 180.438C456.18 179.875 455.478 179.091 454.984 178.085C454.495 177.074 454.251 175.898 454.251 174.557C454.251 173.216 454.495 172.034 454.984 171.011C455.478 169.983 456.165 169.182 457.046 168.608C457.933 168.028 458.967 167.739 460.148 167.739C460.83 167.739 461.504 167.852 462.168 168.08C462.833 168.307 463.438 168.676 463.984 169.188C464.529 169.693 464.964 170.364 465.288 171.199C465.612 172.034 465.773 173.062 465.773 174.284V175.136H455.683V173.398H463.728C463.728 172.659 463.58 172 463.285 171.42C462.995 170.841 462.58 170.384 462.04 170.048C461.506 169.713 460.876 169.545 460.148 169.545C459.347 169.545 458.654 169.744 458.069 170.142C457.489 170.534 457.043 171.045 456.731 171.676C456.418 172.307 456.262 172.983 456.262 173.705V174.864C456.262 175.852 456.433 176.69 456.773 177.378C457.12 178.06 457.6 178.58 458.214 178.938C458.827 179.29 459.54 179.466 460.353 179.466C460.881 179.466 461.359 179.392 461.785 179.244C462.217 179.091 462.589 178.864 462.901 178.562C463.214 178.256 463.455 177.875 463.626 177.42L465.569 177.966C465.364 178.625 465.021 179.205 464.538 179.705C464.055 180.199 463.458 180.585 462.748 180.864C462.038 181.136 461.239 181.273 460.353 181.273ZM472.685 181.307C471.856 181.307 471.103 181.151 470.427 180.838C469.751 180.52 469.214 180.062 468.816 179.466C468.418 178.864 468.219 178.136 468.219 177.284C468.219 176.534 468.367 175.926 468.663 175.46C468.958 174.989 469.353 174.619 469.847 174.352C470.342 174.085 470.887 173.886 471.484 173.756C472.086 173.619 472.691 173.511 473.299 173.432C474.094 173.33 474.739 173.253 475.234 173.202C475.734 173.145 476.097 173.051 476.325 172.92C476.558 172.79 476.674 172.562 476.674 172.239V172.17C476.674 171.33 476.444 170.676 475.984 170.21C475.529 169.744 474.839 169.511 473.913 169.511C472.952 169.511 472.2 169.722 471.654 170.142C471.109 170.562 470.725 171.011 470.504 171.489L468.594 170.807C468.935 170.011 469.39 169.392 469.958 168.949C470.532 168.5 471.157 168.187 471.833 168.011C472.515 167.83 473.185 167.739 473.844 167.739C474.265 167.739 474.748 167.79 475.293 167.892C475.844 167.989 476.376 168.19 476.887 168.497C477.404 168.804 477.833 169.267 478.174 169.886C478.515 170.506 478.685 171.335 478.685 172.375V181H476.674V179.227H476.572C476.435 179.511 476.208 179.815 475.89 180.139C475.572 180.463 475.148 180.739 474.62 180.966C474.092 181.193 473.447 181.307 472.685 181.307ZM472.992 179.5C473.788 179.5 474.458 179.344 475.004 179.031C475.555 178.719 475.969 178.315 476.248 177.821C476.532 177.327 476.674 176.807 476.674 176.261V174.42C476.589 174.523 476.401 174.616 476.112 174.702C475.827 174.781 475.498 174.852 475.123 174.915C474.754 174.972 474.393 175.023 474.04 175.068C473.694 175.108 473.413 175.142 473.197 175.17C472.674 175.239 472.185 175.349 471.731 175.503C471.282 175.651 470.918 175.875 470.64 176.176C470.367 176.472 470.231 176.875 470.231 177.386C470.231 178.085 470.489 178.614 471.006 178.972C471.529 179.324 472.191 179.5 472.992 179.5Z" fill="white"/>
</svg>
